<?xml version="1.0" standalone="no"?>
<!DOCTYPE svg PUBLIC "-//W3C//DTD SVG 1.1//EN" "http://www.w3.org/Graphics/SVG/1.1/DTD/svg11.dtd" >
<svg xmlns="http://www.w3.org/2000/svg" width="100%" height="100%">
<metadata>
Created by FontForge 20090622 at Fri May  3 07:00:48 2013
 By fontface
Copyright &#194;&#169; 1995, 2002 Adobe Systems Incorporated. All Rights Reserved.
</metadata>
<defs>
<font id="ITCFranklinGothicStd-MdCd" horiz-adv-x="1046" >
  <font-face 
    font-family="ITC Franklin Gothic Std MedCd"
    font-weight="500"
    font-stretch="condensed"
    units-per-em="2048"
    panose-1="2 11 7 6 3 5 3 2 2 4"
    ascent="1405"
    descent="-643"
    x-height="1010"
    cap-height="1366"
    bbox="-319 -512 1935 1839"
    underline-thickness="102"
    underline-position="-102"
    unicode-range="U+0020-U+FB02"
  />
<missing-glyph horiz-adv-x="1024" 
d="M0 0v1434h1024v-1434h-1024zM512 809l348 522h-696zM573 717l349 -522v1044zM164 102h696l-348 523zM102 1239v-1044l349 522z" />
    <glyph glyph-name="f_i" unicode="fi" horiz-adv-x="976" 
d="M356 1010h176v-168h-176v-842h-202v842h-134v168h134q3 153 22 218q39 139 180 168q41 9 93 9q38 0 96 -8v-168q-28 4 -51 4q-47 0 -76 -11.5t-42 -36.5t-16.5 -50.5t-3.5 -67.5v-57zM645 1010h209v-1010h-209v1010zM858 1147h-217v221h217v-221z" />
    <glyph glyph-name="f_l" unicode="fl" horiz-adv-x="976" 
d="M356 1010h176v-168h-176v-842h-202v842h-134v168h134q3 153 22 218q39 139 180 168q41 9 93 9q38 0 96 -8v-168q-28 4 -51 4q-47 0 -76 -11.5t-42 -36.5t-16.5 -50.5t-3.5 -67.5v-57zM645 1366h209v-1366h-209v1366z" />
    <glyph glyph-name=".notdef" horiz-adv-x="1024" 
d="M0 0v1434h1024v-1434h-1024zM512 809l348 522h-696zM573 717l349 -522v1044zM164 102h696l-348 523zM102 1239v-1044l349 522z" />
    <glyph glyph-name=".null" horiz-adv-x="0" 
 />
    <glyph glyph-name="nonmarkingreturn" horiz-adv-x="682" 
 />
    <glyph glyph-name="space" unicode=" " horiz-adv-x="512" 
 />
    <glyph glyph-name="exclam" unicode="!" horiz-adv-x="698" 
d="M211 1366h276l-69 -997h-137zM236 252h227v-252h-227v252z" />
    <glyph glyph-name="quotedbl" unicode="&#x22;" horiz-adv-x="768" 
d="M334 1366l-33 -561h-145l-33 561h211zM647 1366l-33 -561h-145l-33 561h211z" />
    <glyph glyph-name="numbersign" unicode="#" 
d="M375 1366h147l-67 -397h227l66 397h147l-66 -397h197l-22 -140h-197l-45 -264h196l-22 -139h-197l-71 -426h-148l72 426h-227l-72 -426h-148l72 426h-197l23 139h197l45 264h-197l23 140h196zM659 829h-227l-45 -264h227z" />
    <glyph glyph-name="dollar" unicode="$" 
d="M592 1475v-136q101 -12 168 -49t103.5 -90t62.5 -135l-162 -68q-31 87 -71 128.5t-107 54.5v-377l66.5 -20t68.5 -26t71 -36t61.5 -48t53.5 -64t33.5 -82.5t13.5 -104.5q0 -195 -139 -303q-38 -29 -82 -47t-70 -23t-71 -10v-174h-125v174q-74 10 -132 32.5t-96 51.5
t-67.5 71t-46 82t-31.5 93l178 59q24 -93 68 -146t133 -75v407l-47.5 15t-56.5 22.5t-64.5 34t-59.5 47t-53 63t-34.5 81t-14.5 102.5q0 91 39.5 170.5t104.5 124.5q77 52 180 65v136h125zM473 838v338q-137 -35 -137 -170q0 -128 137 -168zM586 582v-375q174 26 174 186
q0 41 -13.5 73.5t-31 51t-45.5 33t-44 20t-40 11.5z" />
    <glyph glyph-name="percent" unicode="%" horiz-adv-x="1394" 
d="M356 1378q123 0 196 -93t73 -259q0 -175 -75.5 -264.5t-193.5 -89.5q-121 0 -195.5 90.5t-74.5 263.5q0 168 73.5 260t196.5 92zM356 1253q-24 0 -41 -8t-34 -30.5t-26 -70t-9 -118.5q0 -57 6 -98.5t15.5 -66.5t24.5 -39.5t30 -19.5t34 -5q57 0 83 54.5t26 174.5
q0 122 -27 174.5t-82 52.5zM1040 694q122 0 195.5 -92.5t73.5 -261.5t-74 -260.5t-195 -91.5q-123 0 -195.5 92t-72.5 260q0 174 73.5 264t194.5 90zM1040 569q-53 0 -81.5 -50.5t-28.5 -180.5q0 -95 18 -150q26 -75 92 -75q52 0 80.5 49.5t28.5 177.5q0 121 -27.5 175
t-81.5 54zM965 1366h135l-666 -1366h-135z" />
    <glyph glyph-name="ampersand" unicode="&#x26;" horiz-adv-x="1290" 
d="M1032 762l168 -37q-28 -151 -70.5 -256.5t-111.5 -208.5q22 -28 37.5 -43.5t44.5 -32t61 -16.5q18 0 64 8v-176q-74 -18 -113 -18q-42 0 -77.5 11t-65.5 35t-45.5 40.5t-42.5 48.5q-33 -29 -57.5 -47t-69.5 -43.5t-101 -38.5t-121 -13q-105 0 -187 36t-129 95t-71 128
t-24 143q0 139 76.5 237t220.5 166q-32 51 -51.5 86.5t-43.5 104t-24 125.5q0 52 21.5 104t60.5 95t102 69.5t138 26.5q79 0 140.5 -26.5t96.5 -70.5t52.5 -94.5t17.5 -105.5q0 -215 -250 -355l233 -336q78 121 121 359zM498 1100q0 -101 92 -238q70 41 114 102t44 132
q0 63 -34 102t-89 39q-53 0 -90 -36.5t-37 -100.5zM784 248l-278 405l-39.5 -26t-42.5 -36t-44 -51.5t-29 -66t-13 -86.5q0 -105 60 -173.5t163 -68.5q43 0 79 9t65 28.5t42.5 31t36.5 34.5z" />
    <glyph glyph-name="quotesingle" unicode="'" horiz-adv-x="452" 
d="M332 1366l-33 -561h-145l-33 561h211z" />
    <glyph glyph-name="parenleft" unicode="(" horiz-adv-x="663" 
d="M385 1366h166q-234 -387 -234 -854q0 -84 9.5 -173.5t33 -203t72.5 -238t119 -239.5h-166q-276 394 -276 854q0 468 276 854z" />
    <glyph glyph-name="parenright" unicode=")" horiz-adv-x="663" 
d="M279 -342h-166q233 385 233 854t-233 854h166q114 -167 170 -307q106 -262 106 -547q0 -460 -276 -854z" />
    <glyph glyph-name="asterisk" unicode="*" 
d="M449 1366h149l-23 -270l226 149l69 -137l-235 -104l235 -107l-69 -135l-226 149l23 -270h-149l22 270l-225 -149l-70 135l236 107l-236 104l70 137l225 -149z" />
    <glyph glyph-name="plus" unicode="+" 
d="M610 766h332v-166h-332v-336h-174v336h-332v166h332v336h174v-336z" />
    <glyph glyph-name="comma" unicode="," horiz-adv-x="489" 
d="M141 258h228v-246l-148 -301h-100l125 289h-105v258z" />
    <glyph glyph-name="hyphen" unicode="-" horiz-adv-x="593" 
d="M80 596h432v-168h-432v168z" />
    <glyph glyph-name="period" unicode="." horiz-adv-x="489" 
d="M131 258h227v-258h-227v258z" />
    <glyph glyph-name="slash" unicode="/" horiz-adv-x="976" 
d="M723 1366h156l-754 -1708h-156z" />
    <glyph glyph-name="zero" unicode="0" 
d="M522 1391q104 0 184 -40t129 -105t80 -157.5t42.5 -186t11.5 -202.5q0 -81 -4.5 -151t-17.5 -145.5t-34 -136.5t-56 -116.5t-80.5 -93.5t-110.5 -60t-144 -22q-87 0 -157 27t-117.5 77t-81.5 113.5t-52.5 144t-27 160t-8.5 169.5q0 81 5 152t18 146.5t33.5 136t55 116
t80 93t110 59.5t142.5 22zM522 1223q-52 0 -90.5 -29t-61.5 -76.5t-36.5 -120.5t-18 -146.5t-4.5 -168.5q0 -81 3.5 -145.5t12 -128t24 -110t38.5 -82.5t56.5 -54.5t76.5 -18.5q62 0 104.5 37.5t66 112t33 167.5t9.5 222q0 98 -5 174t-19.5 147.5t-37.5 118t-61.5 74
t-89.5 27.5z" />
    <glyph glyph-name="one" unicode="1" 
d="M897 168v-168h-678v168h236v936q-27 -33 -49.5 -55.5t-74 -62t-118.5 -77.5v211q180 103 297 260h166v-1212h221z" />
    <glyph glyph-name="two" unicode="2" 
d="M270 928l-204 43q6 33 11.5 56.5t22 70.5t36 82t54.5 77t76.5 69t104 46t135.5 19q104 0 185 -34t128.5 -92t71.5 -128t24 -148q0 -65 -13 -122.5t-52 -131t-105 -150.5t-176 -175.5t-262 -210.5h617l-11 -199h-847v197q374 315 522 520q94 126 94 258q0 41 -10 79.5
t-31.5 73t-60.5 55.5t-91 21q-186 0 -219 -276z" />
    <glyph glyph-name="three" unicode="3" 
d="M268 1014l-190 45l13.5 44.5t23 55.5t36.5 65t53 61t74 55t99 36t127 15q175 0 285 -94.5t110 -272.5q0 -59 -15.5 -108t-36 -78.5t-54 -56t-54.5 -37l-53 -25.5q27 -8 42 -13.5t43.5 -19t53.5 -36t47 -52.5q64 -87 64 -215q0 -99 -35 -178t-96.5 -128.5t-142 -75.5
t-173.5 -26q-53 0 -105.5 8.5t-123.5 41.5t-119 88q-33 36 -55 81t-29.5 73t-15.5 73l195 47q6 -28 11 -47.5t23.5 -58t42 -63t67.5 -44.5t99 -20q91 0 155 58t64 181q0 47 -11.5 84.5t-28 61.5t-43 41.5t-49 25.5t-53.5 13t-48.5 5.5t-42.5 0.5h-86v168h86q49 0 70.5 1
t52.5 10t55 27q72 54 72 173q0 92 -48 152.5t-141 60.5q-45 0 -82 -16t-58 -36.5t-38.5 -52.5t-23.5 -51.5t-13 -46.5z" />
    <glyph glyph-name="four" unicode="4" 
d="M555 1391h258v-893h170v-172h-170v-326h-219v326h-533v166zM242 492h362v698z" />
    <glyph glyph-name="five" unicode="5" 
d="M182 1366h709l-21 -199h-518l-20 -379q17 21 28 33.5t35 32.5t48 31.5t61.5 20.5t81.5 9q77 0 143.5 -27.5t119 -81t82.5 -142.5t30 -203q0 -101 -25 -183.5t-67 -138t-100 -93t-122 -54.5t-135 -17q-194 0 -311 117q-40 39 -65.5 84.5t-34 74t-17.5 75.5l203 49
q6 -24 10 -37.5t13.5 -39t19.5 -41.5t28 -36t39 -31.5t52 -19.5t67 -8q109 0 164 71q61 79 61 220q0 54 -10.5 100t-34 87t-68 65t-106.5 24q-41 0 -75.5 -11.5t-55 -25.5t-39 -38t-26 -38t-17.5 -36l-170 36z" />
    <glyph glyph-name="six" unicode="6" 
d="M971 1059l-187 -60l-11.5 41.5t-15.5 45.5t-26 48.5t-36 39t-52 30.5t-68 10q-53 0 -94 -21.5t-67.5 -62.5t-44.5 -88.5t-28.5 -113.5t-15 -122t-6.5 -128q14 29 24 47.5t35.5 51.5t54 52.5t75.5 35.5t102 16q70 0 135.5 -28t119 -81.5t86 -141t32.5 -196.5
q0 -211 -115.5 -335t-304.5 -124q-85 0 -157 30t-113.5 69t-74.5 91.5t-45 83t-19 58.5q-43 160 -43 344q0 510 249 676q98 64 220 64q310 0 391 -332zM565 705q-63 0 -109 -28t-69 -72.5t-33 -88.5t-10 -88q0 -74 22 -135t72.5 -102t122.5 -41q55 0 95 22.5t60 52.5
t31.5 73.5t14 71.5t2.5 60q0 16 -0.5 29t-4.5 43t-10.5 54t-21.5 53.5t-35.5 49t-53 33t-73.5 13.5z" />
    <glyph glyph-name="seven" unicode="7" 
d="M115 1167l16 199h789v-160q-40 -53 -68 -95.5t-72 -121t-84 -184t-75 -232.5q-35 -125 -52.5 -253t-19.5 -183t-2 -137h-240q0 129 18.5 256t44 224.5t67.5 199t74 166t80 139.5t69 105t57 77h-602z" />
    <glyph glyph-name="eight" unicode="8" 
d="M723 737q23 -11 37 -18.5t43.5 -27t49.5 -37.5t45.5 -48t41 -62t26.5 -76t11 -93q0 -74 -27 -143t-80.5 -127.5t-146 -94t-211.5 -35.5q-211 0 -328 101q-114 100 -114 272q0 63 19 117t43 87.5t64.5 65t64.5 45t61 31.5q-32 20 -51.5 33.5t-53 44t-52.5 61.5t-34.5 79.5
t-15.5 103.5q0 51 13 101.5t44 100.5t77.5 88t120.5 61.5t165 23.5q231 0 337 -144q64 -91 64 -205q0 -55 -16.5 -102.5t-37 -77t-55.5 -58t-54 -40t-50 -27.5zM553 809q43 23 66.5 38t56 43.5t48 65t15.5 82.5q0 80 -53.5 137.5t-150.5 57.5q-88 0 -145.5 -50.5
t-57.5 -135.5q0 -40 13.5 -74t33.5 -57.5t51.5 -44.5t59 -34.5t63.5 -27.5zM483 610q-35 -16 -54 -25.5t-53.5 -33.5t-53.5 -47.5t-34.5 -61.5t-15.5 -82q0 -108 72 -165.5t176 -57.5q99 0 169.5 53.5t70.5 149.5q0 44 -17 82t-40 63t-65.5 51t-72.5 39.5t-82 34.5z" />
    <glyph glyph-name="nine" unicode="9" 
d="M90 274l195 58q7 -29 13 -47.5t21 -47t34 -45t51 -29.5t73 -13q52 0 92 22t65.5 64t42.5 88.5t26 111t12.5 114t5.5 114.5q-16 -29 -26.5 -45.5t-36 -46t-52 -46t-70 -30t-94.5 -13.5q-165 0 -270.5 128t-105.5 321q0 92 27 173.5t79 146t135.5 102t188.5 37.5
q438 0 438 -658q0 -128 -13.5 -236t-47.5 -206.5t-86.5 -166.5t-135 -108.5t-188.5 -40.5q-56 0 -104.5 11.5t-82 27.5t-63 44t-46.5 51t-34.5 58t-24.5 54.5zM494 1214q-89 0 -149 -69t-60 -207q0 -119 53.5 -193.5t153.5 -74.5q58 0 101.5 26.5t65.5 69.5t32.5 87t10.5 89
q0 48 -11.5 94t-34.5 87t-65 66t-97 25z" />
    <glyph glyph-name="colon" unicode=":" horiz-adv-x="489" 
d="M131 258h227v-258h-227v258zM131 1010h227v-258h-227v258z" />
    <glyph glyph-name="semicolon" unicode=";" horiz-adv-x="489" 
d="M141 258h228v-246l-148 -301h-100l125 289h-105v258zM141 1010h228v-258h-228v258z" />
    <glyph glyph-name="less" unicode="&#x3c;" 
d="M967 1204v-205l-666 -317l666 -315v-207l-887 434v178z" />
    <glyph glyph-name="equal" unicode="=" 
d="M942 739h-838v166h838v-166zM942 459h-838v166h838v-166z" />
    <glyph glyph-name="greater" unicode="&#x3e;" 
d="M80 160v207l665 317l-665 315v205l887 -434v-176z" />
    <glyph glyph-name="question" unicode="?" horiz-adv-x="1011" 
d="M272 930l-194 37q5 50 10 82t27 93t59 109q108 140 318 140q187 0 289 -104t102 -269q0 -56 -12.5 -106t-29.5 -84t-48.5 -71t-53.5 -57.5t-61 -52.5q-41 -33 -63.5 -56t-38.5 -47t-20 -47t-7.5 -56.5t0.5 -75.5h-189q1 61 1.5 86.5t4 66t6 54t13 41.5t20 39l31 35.5
t41 41l55.5 47.5q26 23 42.5 41.5t37.5 49t32 70t11 85.5q0 94 -48.5 142t-127.5 48q-44 0 -78.5 -14t-56 -41t-35.5 -53.5t-21.5 -64t-10.5 -58.5t-5 -51zM342 246h223v-246h-223v246z" />
    <glyph glyph-name="at" unicode="@" horiz-adv-x="1220" 
d="M797 1038h118l-59 -424q-12 -84 -12 -135q0 -41 12.5 -55t38.5 -14q71 0 121.5 100t50.5 260q0 131 -34 231.5t-93 160t-133 89t-160 29.5q-113 0 -205.5 -49t-152.5 -132.5t-92.5 -193t-32.5 -231.5t32.5 -227.5t95 -186t160 -126.5t220.5 -46q65 0 123 10.5t105.5 29.5
t74 33t59.5 34l47 -109q-40 -22 -69 -36t-85.5 -36.5t-123 -34.5t-137.5 -12q-292 0 -472 189.5t-180 511.5q0 152 43 285t122.5 232.5t201.5 157.5t270 58q176 0 303.5 -81.5t189.5 -219t62 -314.5q0 -228 -97 -367.5t-235 -139.5q-41 0 -68.5 9t-43 29.5t-21.5 34.5
t-14 43q-15 -26 -23 -38t-30 -36t-53.5 -35.5t-71.5 -11.5q-98 0 -159.5 87.5t-61.5 242.5q0 119 34 220.5t101.5 165t154.5 63.5q39 0 69 -12.5t48.5 -35.5t27 -39t17.5 -38zM627 903q-47 0 -80.5 -48t-47.5 -112.5t-14 -134.5q0 -86 26.5 -135t68.5 -49q39 0 68 31.5
t42 70.5t21 90.5t9 74.5t1 38q0 28 -3 53t-12 55t-29 48t-50 18z" />
    <glyph glyph-name="A" unicode="A" horiz-adv-x="1011" 
d="M387 1366h254l365 -1366h-230l-86 342h-397l-84 -342h-217zM336 520h309l-153 627z" />
    <glyph glyph-name="B" unicode="B" horiz-adv-x="1116" 
d="M131 1366h412q53 0 80.5 -0.5t74 -6t76.5 -16t63.5 -31.5t57.5 -52q78 -99 78 -242q0 -45 -8.5 -84t-20.5 -66.5t-32 -51.5t-35.5 -38t-39.5 -27.5t-35.5 -18.5t-31.5 -13q99 -31 152 -82q94 -102 94 -256q0 -97 -40 -185t-116 -130q-73 -42 -140.5 -54t-170.5 -12h-418
v1366zM352 1192v-393h144q31 0 52 1.5t53.5 7t54 18.5t42.5 34t32 56.5t11 82.5q0 40 -9.5 71.5t-22.5 51.5t-35 34t-39.5 21t-44 10.5t-39.5 4t-35 0.5h-164zM352 625v-445h183q249 0 249 221q0 46 -11.5 82.5t-28.5 59.5t-43.5 39.5t-48 24.5t-52.5 12.5t-46 5t-38 0.5
h-164z" />
    <glyph glyph-name="C" unicode="C" horiz-adv-x="1081" 
d="M817 459l209 -29q-5 -36 -9.5 -61t-19.5 -76.5t-34 -89t-53.5 -83.5t-78 -75t-108.5 -49.5t-143 -20.5q-92 0 -167 27.5t-125.5 72t-88.5 107t-59 124.5t-33.5 134.5t-16.5 127t-4 110.5q0 55 3.5 108.5t16 127.5t33 136.5t58.5 127.5t89 110.5t127.5 74t170.5 28.5
q62 0 115.5 -12.5t92.5 -32t72.5 -51t56 -60t41 -69t29 -69t19 -68t11.5 -58t7 -47.5l-211 -29q-4 33 -7 54t-11.5 56.5t-18.5 60t-27.5 52.5t-39.5 45.5t-54 29t-71 11.5q-57 0 -101 -23.5t-72 -67t-46.5 -93.5t-27.5 -114.5t-12 -117.5t-3 -116q0 -510 262 -510
q101 0 152 70.5t77 226.5z" />
    <glyph glyph-name="D" unicode="D" horiz-adv-x="1150" 
d="M133 1366h307q315 0 465 -168q160 -186 160 -504q0 -211 -70.5 -368t-187.5 -238q-124 -88 -350 -88h-324v1366zM453 1186h-95v-1006h95q159 0 237 82q135 129 135 420q0 83 -10.5 154t-37 137t-67.5 112t-106.5 73.5t-150.5 27.5z" />
    <glyph glyph-name="E" unicode="E" horiz-adv-x="942" 
d="M131 1366h780v-180h-555v-393h437v-181h-437v-428h566v-184h-791v1366z" />
    <glyph glyph-name="F" unicode="F" horiz-adv-x="872" 
d="M131 1366h758v-180h-533v-410h426v-180h-426v-596h-225v1366z" />
    <glyph glyph-name="G" unicode="G" horiz-adv-x="1150" 
d="M596 700h455v-710h-121l-29 174q-16 -27 -28 -45t-41.5 -48t-61.5 -48.5t-84 -33t-113 -14.5q-80 0 -148.5 23t-117.5 62.5t-88 95t-63.5 116t-40.5 130t-22.5 133.5t-6.5 129q0 46 2.5 91t10 101.5t19 107.5t32 106t47.5 100.5t66 87.5t86.5 70.5t111 45.5t137.5 17
q91 0 163 -24t118.5 -61t80.5 -94t52 -112t32 -125l-204 -51q-8 37 -13 56.5t-16.5 54t-22 54t-29 44.5t-40 38.5t-52 23t-67.5 9.5q-77 0 -131.5 -38.5t-85 -110.5t-44 -162.5t-13.5 -208.5q0 -522 278 -522q49 0 87.5 16t62.5 38.5t41.5 59t26 65t13 69.5t5 61t0.5 49
h-244v180z" />
    <glyph glyph-name="H" unicode="H" horiz-adv-x="1116" 
d="M131 1366h225v-567h404v567h225v-1366h-225v608h-404v-608h-225v1366z" />
    <glyph glyph-name="I" unicode="I" horiz-adv-x="489" 
d="M131 1366h225v-1366h-225v1366z" />
    <glyph glyph-name="J" unicode="J" horiz-adv-x="628" 
d="M276 1366h226v-850q0 -202 -19 -289q-37 -173 -175 -226q-68 -26 -165 -26q-60 0 -176 25v186q74 -18 133 -18q29 0 51.5 4.5t40 11t30.5 21t22 27.5t15 39t9.5 46t5 57t2 65t0.5 77v850z" />
    <glyph glyph-name="K" unicode="K" 
d="M131 1366h225v-651l412 651h240l-353 -502l412 -864h-244l-305 676l-162 -227v-449h-225v1366z" />
    <glyph glyph-name="L" unicode="L" horiz-adv-x="837" 
d="M131 1366h225v-1176h484v-190h-709v1366z" />
    <glyph glyph-name="M" unicode="M" horiz-adv-x="1464" 
d="M127 1366h334l272 -985l279 985h321v-1366h-213v1165l-323 -1165h-164l-318 1167v-1167h-188v1366z" />
    <glyph glyph-name="N" unicode="N" horiz-adv-x="1150" 
d="M123 1366h266l451 -985v985h188v-1366h-211l-506 1094v-1094h-188v1366z" />
    <glyph glyph-name="O" unicode="O" horiz-adv-x="1150" 
d="M578 1391q85 0 155.5 -23t120 -61.5t88 -94.5t62 -116.5t38 -133.5t20 -140t5.5 -140q0 -67 -4.5 -128.5t-18 -134.5t-35.5 -134t-59.5 -120t-87 -99.5t-122 -65.5t-160.5 -25q-85 0 -156 23t-121.5 61.5t-89 94.5t-62.5 116.5t-39 133t-20.5 139t-5.5 139.5
q0 103 11.5 194.5t44.5 189t85.5 167t142.5 114t208 44.5zM578 1204q-80 0 -125 -37t-74 -102q-55 -126 -55 -383q0 -250 55 -381q31 -70 77 -104.5t124 -34.5t122 37.5t72 101.5q55 130 55 381q0 254 -55 383q-29 64 -72.5 101.5t-123.5 37.5z" />
    <glyph glyph-name="P" unicode="P" horiz-adv-x="1011" 
d="M131 1366h338q138 0 231.5 -21.5t159.5 -91.5q111 -116 111 -305q0 -93 -35.5 -189.5t-120.5 -154.5q-36 -25 -81.5 -41t-98 -22t-83.5 -7.5t-79 -1.5h-117v-532h-225v1366zM469 1192h-113v-479h113q31 0 48 0.5t49 5t51 13t44 26t38.5 42t23.5 63.5t10 89q0 101 -47 168
q-18 26 -39.5 41.5t-53 21.5t-54.5 7.5t-70 1.5z" />
    <glyph glyph-name="Q" unicode="Q" horiz-adv-x="1150" 
d="M991 -119v-172q-63 -24 -133 -24q-179 0 -244 122q-6 10 -10.5 19.5t-8 20.5l-6 18.5t-4.5 20t-3 17.5t-1.5 19.5t-1 17.5t-1 19.5t-0.5 17.5q-114 0 -201.5 40t-141.5 105.5t-88.5 159t-47.5 190.5t-13 210q0 74 6 141t21 140t38.5 133.5t62.5 116.5t89 94.5t120 61
t155 22.5q90 0 163.5 -26t123 -68.5t87 -103.5t58.5 -122.5t34 -135t17 -132t4 -121.5q0 -167 -37 -324q-16 -70 -42.5 -126.5t-51.5 -89.5t-63.5 -62.5t-59.5 -41t-57 -28.5q0 -75 25.5 -111t107.5 -36q55 0 104 18zM575 162q25 0 45.5 3.5t47.5 16t48 33.5t42.5 60.5
t36 93t23.5 133.5t9 180q0 255 -55 381q-28 65 -72 103t-125 38q-79 0 -124 -37.5t-72 -101.5q-55 -127 -55 -383q0 -278 62 -399t189 -121z" />
    <glyph glyph-name="R" unicode="R" horiz-adv-x="1081" 
d="M131 1366h412q194 0 293 -70q62 -44 102.5 -125t40.5 -194q0 -70 -17.5 -129.5t-39 -95t-56 -66.5t-53 -42.5t-45.5 -25.5l260 -618h-244l-215 571h-213v-571h-225v1366zM532 1192h-176v-447h174q116 0 171 63t55 171q0 44 -10.5 79t-25.5 56.5t-38 37.5t-41.5 23.5
t-44 11.5t-37 4.5t-27.5 0.5z" />
    <glyph glyph-name="S" unicode="S" 
d="M944 1061l-192 -68q-36 105 -89.5 158t-152.5 53q-51 0 -89.5 -18t-58.5 -46t-29 -55t-9 -53t7.5 -48.5t17 -39t33 -34l38.5 -28t52 -27t56.5 -24l67.5 -26.5l72 -28t72 -33t73.5 -42.5t63.5 -53.5t54.5 -69t33.5 -85t14 -105q0 -77 -27.5 -148.5t-81.5 -132t-144.5 -97
t-205.5 -36.5q-79 0 -145.5 17.5t-111.5 41t-83 63.5t-58 69.5t-38 74.5t-23.5 63.5t-13.5 51.5l201 58l8 -33.5t14 -42.5t23 -49.5t34.5 -46t48.5 -42t65 -27t85 -11.5q66 0 113 21t69 54t31 63t9 58q0 46 -18 82t-54.5 62.5t-71.5 43t-90 36.5q-127 47 -182 74t-107 71
q-53 46 -88 118t-35 161q0 57 15.5 111.5t49.5 104.5t82 87.5t118.5 59.5t154.5 22q66 0 123 -14t96 -34t73 -53t53 -58.5t37 -64.5t24.5 -57t15.5 -49z" />
    <glyph glyph-name="T" unicode="T" horiz-adv-x="768" 
d="M-33 1366h832v-192h-305v-1174h-226v1174h-301v192z" />
    <glyph glyph-name="U" unicode="U" horiz-adv-x="1116" 
d="M121 1366h221v-848q0 -40 0.5 -60.5t2 -57t5.5 -56t12 -49t19 -45.5t28 -35.5t39.5 -29t53 -16.5t67.5 -7t66.5 6.5t51.5 15.5t39 28t28 34.5t19 44.5t11.5 49.5t5.5 57.5t2.5 59t0.5 65v844h202v-834q0 -74 -1.5 -117.5t-9 -104t-21.5 -100t-41.5 -80.5t-67.5 -71
q-114 -84 -297 -84q-306 0 -393 211q-42 100 -43 297v35v848z" />
    <glyph glyph-name="V" unicode="V" horiz-adv-x="942" 
d="M-8 1366h237l260 -1090l261 1090h198l-358 -1370l-246 4z" />
    <glyph glyph-name="W" unicode="W" horiz-adv-x="1429" 
d="M4 1366h232l184 -1024l213 1024h196l211 -1024l195 1024h190l-286 -1370h-205l-215 1003l-213 -1003h-207z" />
    <glyph glyph-name="X" unicode="X" horiz-adv-x="907" 
d="M16 1366h252l195 -436l219 436h211l-318 -621l359 -745h-252l-233 522l-263 -522h-215l367 707z" />
    <glyph glyph-name="Y" unicode="Y" horiz-adv-x="837" 
d="M-63 1366h245l250 -569l254 569h217l-379 -788v-578h-225v578z" />
    <glyph glyph-name="Z" unicode="Z" horiz-adv-x="872" 
d="M39 1366h819v-158l-606 -1018h620v-190h-870v174l598 1008h-561v184z" />
    <glyph glyph-name="bracketleft" unicode="[" horiz-adv-x="663" 
d="M162 1366h354v-115h-160v-1478h160v-115h-354v1708z" />
    <glyph glyph-name="backslash" unicode="\" horiz-adv-x="976" 
d="M254 1366l754 -1708h-156l-754 1708h156z" />
    <glyph glyph-name="bracketright" unicode="]" horiz-adv-x="663" 
d="M502 -342h-355v115h160v1478h-160v115h355v-1708z" />
    <glyph glyph-name="asciicircum" unicode="^" 
d="M1016 647h-197l-297 570l-295 -570h-196l387 733h211z" />
    <glyph glyph-name="underscore" unicode="_" horiz-adv-x="1024" 
d="M0 -256v102h1024v-102h-1024z" />
    <glyph glyph-name="grave" unicode="`" horiz-adv-x="1024" 
d="M666 1208l-76 -78l-352 222l108 137z" />
    <glyph glyph-name="a" unicode="a" horiz-adv-x="942" 
d="M309 723l-200 27q13 74 49 129t77 83.5t93.5 46t88.5 21.5t72 4q187 0 279 -108q29 -33 44 -89.5t17 -98t2 -115.5v-342q0 -207 17 -281h-195q-14 69 -14 168q-17 -31 -28 -49t-37 -49t-53.5 -49t-71.5 -32t-95 -14q-126 0 -204 77t-78 214q0 118 57.5 201t151.5 115
q138 47 342 41v41q0 32 -1 52t-9 55t-22.5 56t-44.5 37.5t-73 16.5q-38 0 -67.5 -13t-45.5 -29.5t-28 -42t-15.5 -40t-7.5 -33.5zM623 442v52q-33 2 -62 2q-70 0 -121 -14t-79.5 -34.5t-45 -51t-21.5 -56.5t-5 -59q0 -152 135 -152q76 0 137.5 79.5t61.5 233.5z" />
    <glyph glyph-name="b" unicode="b" horiz-adv-x="976" 
d="M121 1366h207v-471q20 28 34.5 44t43.5 40.5t68.5 36.5t88.5 12q68 0 123 -23t91 -64t62 -91t40 -110t20 -114t6 -110q0 -43 -3 -85.5t-15 -107.5t-32 -118t-59 -105t-91 -80q-74 -40 -173 -40q-60 0 -104 13.5t-72 41t-41 47.5t-30 55q-27 -64 -45 -137h-119v1366z
M328 616v-188q0 -291 178 -291q97 0 137.5 92t40.5 291q0 84 -7.5 144t-26 110t-53.5 75t-87 25q-71 0 -117 -55q-23 -27 -37.5 -56t-20 -59t-6.5 -46t-1 -42z" />
    <glyph glyph-name="c" unicode="c" horiz-adv-x="837" 
d="M821 670l-200 -21q-5 42 -10 69.5t-16 58.5t-26 49t-40.5 30t-59.5 12q-53 0 -88 -25t-54.5 -77t-27.5 -119t-8 -164q0 -29 0.5 -48t4 -57.5t9.5 -65.5t19 -60.5t31.5 -54.5t47.5 -35.5t66 -14.5t64.5 15.5t42.5 36t25 55t13.5 56.5t6.5 57l200 -19q-5 -37 -9 -61
t-15.5 -67t-27 -72t-43.5 -64.5t-64 -57t-90 -36.5t-119 -15q-68 0 -124 18.5t-95 48.5t-68.5 73.5t-47 89t-28.5 100t-14.5 101t-3.5 96.5q0 78 9 146.5t35.5 142t68.5 125t114.5 85t167.5 33.5q62 0 113.5 -15t86 -37.5t62 -57t42.5 -64.5t26.5 -70.5t15.5 -64t8 -55.5z
" />
    <glyph glyph-name="d" unicode="d" horiz-adv-x="976" 
d="M649 1366h207v-1366h-192v154q-12 -26 -20 -41.5t-30 -43.5t-46.5 -44.5t-66 -29.5t-91.5 -13q-82 0 -144.5 36t-98 89.5t-58 126.5t-30 136.5t-7.5 129.5q0 253 95 390.5t251 137.5q45 0 82.5 -10.5t59.5 -23t42.5 -35t28 -34t18.5 -32.5v473zM649 420v174q0 44 -1.5 68
t-11.5 61t-30 68q-58 83 -139 83q-55 0 -91.5 -31t-53.5 -88t-23 -111.5t-6 -125.5q0 -49 2 -88.5t8 -85.5t18.5 -80.5t31.5 -64t48.5 -45t67.5 -15.5q84 0 137 80q43 65 43 201z" />
    <glyph glyph-name="e" unicode="e" horiz-adv-x="907" 
d="M856 473h-569q0 -35 0.5 -55t4 -61t10.5 -66.5t21 -58.5t34 -52t52 -33t72 -14q39 0 69 13.5t47.5 31t31 47.5t18.5 48.5t12 48.5l189 -27q-6 -25 -11 -42.5t-19 -53.5t-30.5 -62.5t-46.5 -59t-65.5 -53t-87.5 -35t-113 -14.5q-108 0 -188 42.5t-125 116.5t-66.5 162.5
t-21.5 192.5q0 268 112.5 406.5t290.5 138.5q112 0 190.5 -52.5t114.5 -123.5q33 -64 50 -137.5t20 -119.5t4 -128zM291 614h354q0 85 -18 144q-15 47 -46.5 76.5t-58 38t-51.5 8.5q-161 0 -180 -267z" />
    <glyph glyph-name="f" unicode="f" horiz-adv-x="524" 
d="M356 1010h183v-168h-183v-842h-202v842h-134v168h134q3 153 21 217q39 140 179 169q41 9 92 9q57 0 123 -12v-166q-36 8 -77 8q-28 0 -49 -5t-36 -11.5t-24.5 -23t-15 -30t-8 -42t-3 -50.5t-0.5 -63z" />
    <glyph glyph-name="g" unicode="g" horiz-adv-x="907" 
d="M909 1171l-2 -153q-27 6 -47 6q-46 0 -72 -25t-38 -86q77 -95 77 -217q0 -61 -21.5 -117.5t-63 -103t-110 -74.5t-155.5 -28q-66 0 -129 18q-17 -8 -25.5 -12.5t-23 -15.5t-21 -26.5t-6.5 -35.5q0 -23 7.5 -37t22.5 -23.5t47 -14t71 -7.5t104 -6h4q162 -10 228 -30
q132 -41 159 -166q7 -35 7 -76q0 -65 -20.5 -116.5t-57.5 -84.5t-81 -56.5t-98.5 -35t-102.5 -16.5t-99 -5q-42 0 -80.5 3.5t-88 12t-89.5 26.5t-75.5 45t-55 70t-19.5 97q0 49 15.5 86.5t43 59t45.5 31t44 18.5q-21 13 -27.5 17.5t-27 22.5t-29.5 32.5t-18 40.5t-9 55
q0 36 12 67t27 50.5t40 38.5t37.5 26l33.5 18q-27 19 -42.5 33t-40 45t-36.5 76.5t-12 103.5q0 150 98.5 241t255.5 91q44 0 85.5 -8.5t56.5 -14t50 -20.5q6 33 10 50.5t17.5 48t31.5 46.5t51 29t77 13q16 0 39.5 -3.5t25.5 -3.5zM475 897q-149 0 -149 -199q0 -12 0.5 -21
t3 -30.5t7.5 -38t15.5 -37.5t25.5 -34.5t38.5 -23t52.5 -9.5q40 0 69.5 18.5t43 41.5t21 55.5t8.5 47.5t1 31q0 20 -1.5 39.5t-9.5 50.5t-21.5 53t-40.5 39t-64 17zM332 43q-88 -42 -88 -129q0 -78 60.5 -109.5t182.5 -31.5q240 0 240 139q0 33 -12 56.5t-31.5 35.5
t-38 17.5t-39.5 7.5q-22 2 -274 14z" />
    <glyph glyph-name="h" unicode="h" horiz-adv-x="942" 
d="M123 1366h209v-492q13 27 21.5 41.5t29.5 41t43.5 40.5t60.5 25.5t84 11.5q157 0 220 -121q16 -32 24 -83.5t9 -86t1 -106.5v-637h-209v637q0 39 -0.5 58t-3.5 51.5t-11 49t-21 35.5t-35.5 27t-52.5 8q-160 0 -160 -288v-578h-209v1366z" />
    <glyph glyph-name="i" unicode="i" horiz-adv-x="454" 
d="M123 1010h209v-1010h-209v1010zM336 1147h-219v221h219v-221z" />
    <glyph glyph-name="j" unicode="j" horiz-adv-x="454" 
d="M127 1010h209v-973q0 -45 -0.5 -68t-2.5 -63.5t-6.5 -62.5t-13.5 -55t-21.5 -51t-32.5 -40t-45.5 -33t-60 -18.5t-77.5 -7.5q-41 0 -127 14v174q33 -10 74 -10q16 0 28.5 1.5t22.5 6t17.5 8.5t13 15t9.5 17.5t6.5 24l4 28.5t2 36t0.5 40v48v969zM340 1147h-217v221h217
v-221z" />
    <glyph glyph-name="k" unicode="k" horiz-adv-x="872" 
d="M123 1366h209v-807l325 451h207l-262 -348l291 -662h-225l-201 506l-135 -184v-322h-209v1366z" />
    <glyph glyph-name="l" unicode="l" horiz-adv-x="454" 
d="M123 1366h209v-1366h-209v1366z" />
    <glyph glyph-name="m" unicode="m" horiz-adv-x="1429" 
d="M123 0v1010h192v-154q15 31 24 48t31 45.5t45.5 44t62.5 28t87 12.5q53 0 94 -14.5t63.5 -32.5t39.5 -49t22.5 -47.5t12.5 -44.5l19.5 43t30 47.5t47 49.5t66.5 33t93 15q60 0 121 -23t98 -83q19 -31 29 -84.5t12 -96t2 -108.5v-639h-209v623q0 44 -0.5 66t-4 56t-11 51
t-21 36t-35 26.5t-51.5 7.5q-85 0 -122.5 -69.5t-37.5 -204.5v-592h-209v614q0 115 -2.5 144.5t-17.5 54.5q-29 53 -100 53q-34 0 -60 -10.5t-43 -25.5t-29 -41.5t-17.5 -47t-8.5 -53.5t-3.5 -51t-0.5 -49v-588h-209z" />
    <glyph glyph-name="n" unicode="n" horiz-adv-x="942" 
d="M123 0v1010h192v-156q10 21 13 28t17 31t24.5 35.5t31.5 31t43 29t53.5 17.5t67.5 8q163 0 226 -125q15 -30 23 -75.5t9.5 -82t1.5 -100.5v-651h-209v639q0 38 -0.5 54.5t-2.5 47t-6 44t-13 32.5t-21.5 27.5t-32 15t-44.5 6.5q-34 0 -60.5 -12t-43.5 -29t-29 -45.5
t-18 -51.5t-9 -58.5t-3.5 -54t-0.5 -50.5v-565h-209z" />
    <glyph glyph-name="o" unicode="o" horiz-adv-x="942" 
d="M473 1034q91 0 161.5 -31t114 -80t71 -118.5t38 -139.5t10.5 -149q0 -541 -399 -541q-91 0 -161 30.5t-113.5 80.5t-71.5 120.5t-38.5 143t-10.5 156.5q0 80 9 149t36 141.5t70 123t115.5 82.5t168.5 32zM471 877q-93 0 -134.5 -92t-41.5 -281q0 -195 43.5 -283
t132.5 -88q90 0 133 87.5t43 285.5q0 193 -43 282t-133 89z" />
    <glyph glyph-name="p" unicode="p" horiz-adv-x="976" 
d="M121 1010h192v-166l18.5 36.5t23.5 38.5t34.5 41.5t43 33t58.5 26t72 8.5q156 0 249 -135.5t93 -372.5q0 -48 -4.5 -97t-17.5 -116t-43 -131t-74 -110q-78 -84 -211 -84q-49 0 -86.5 10.5t-65 32t-41.5 37t-34 42.5v-446h-207v1352zM328 590v-168q0 -52 1.5 -78t10.5 -62
t27 -65q52 -78 139 -78q96 0 137 95.5t41 279.5q0 360 -176 360q-76 0 -125 -69q-26 -38 -38.5 -78t-14.5 -65t-2 -72z" />
    <glyph glyph-name="q" unicode="q" horiz-adv-x="976" 
d="M743 1018h113q-4 -88 -4 -236v-1124h-209v471l-23.5 -36t-31 -36.5t-45.5 -38.5t-58.5 -24.5t-78.5 -11.5q-154 0 -244 135t-90 370q0 383 198 498q74 43 160 43q46 0 84.5 -12.5t62.5 -28.5t46.5 -43.5t31.5 -42.5t23 -41q32 63 65 158zM643 463v131q0 143 -54.5 211.5
t-121.5 68.5q-51 0 -86 -26.5t-53.5 -77.5t-26.5 -114t-8 -148q0 -369 172 -369q27 0 55 14.5t57 47.5t47.5 101t18.5 161z" />
    <glyph glyph-name="r" unicode="r" horiz-adv-x="559" 
d="M123 1010h184v-226q81 248 252 248q17 0 37 -4v-217q-62 7 -109.5 -7.5t-76.5 -42t-47 -69.5t-24.5 -85t-6.5 -93v-514h-209v1010z" />
    <glyph glyph-name="s" unicode="s" horiz-adv-x="802" 
d="M731 774l-164 -45q-8 26 -16.5 44.5t-27.5 47t-51.5 44.5t-74.5 16q-62 0 -96.5 -36.5t-34.5 -88.5q0 -27 9 -47.5t21 -34t43 -28t54.5 -23t75.5 -25.5q35 -11 55.5 -18.5t56 -23t57.5 -30t49.5 -38.5t43 -50.5t26.5 -63t11 -79.5q0 -60 -23 -116t-67 -102t-116.5 -74
t-164.5 -28q-64 0 -117.5 13t-88.5 31.5t-63.5 48.5t-43.5 53t-27 57.5t-15.5 49.5t-8.5 40l178 35q4 -21 8 -37t17.5 -44t33 -46t55 -32.5t81.5 -14.5q48 0 82 15t48.5 38.5t20.5 42.5t6 37q0 28 -11.5 51t-25.5 37.5t-42 28t-46 20t-53 17.5l-48.5 16l-47 17t-49 20.5
t-44.5 24.5t-42.5 30.5t-33.5 36.5t-28.5 45t-16.5 53t-7 64q0 127 91 219t244 92q259 0 328 -260z" />
    <glyph glyph-name="t" unicode="t" horiz-adv-x="559" 
d="M526 1010v-168h-192v-447v-55.5t1.5 -46t4 -40.5t7 -31.5t11.5 -27l17 -18t24 -14.5t32.5 -7t41.5 -3q11 0 86 6v-164q-97 -19 -156 -19q-182 0 -238 117q-34 71 -36 234v55v461h-131v168h137l10 264l189 16v-280h192z" />
    <glyph glyph-name="u" unicode="u" horiz-adv-x="942" 
d="M117 1010h209v-641q0 -47 0.5 -67t3.5 -53t10 -47t19.5 -30.5t33 -22.5t49.5 -6q27 0 50 7.5t39 18.5t29 32t21 39t14 49.5t9 52.5t4.5 59.5t1.5 60v62.5v486h209v-1010h-192v152l-25.5 -48t-32 -45.5t-46.5 -43.5t-64 -27.5t-88 -12.5q-41 0 -75.5 8.5t-59 21t-44 35
t-32 42t-21 52t-13 55t-6.5 60.5t-2.5 58t-0.5 58v645z" />
    <glyph glyph-name="v" unicode="v" horiz-adv-x="733" 
d="M-10 1010h203l190 -725l184 725h181l-285 -1010h-184z" />
    <glyph glyph-name="w" unicode="w" horiz-adv-x="1150" 
d="M-2 1010h207l147 -695l146 695h184l143 -699l160 699h170l-252 -1010h-176l-154 700l-145 -700h-176z" />
    <glyph glyph-name="x" unicode="x" horiz-adv-x="733" 
d="M-2 1010h231l148 -293l153 293h195l-256 -457l299 -553h-233l-183 356l-190 -356h-197l293 524z" />
    <glyph glyph-name="y" unicode="y" horiz-adv-x="733" 
d="M0 1010h209l176 -693l180 693h189l-328 -1073l-21.5 -67t-23 -60.5t-29 -57.5t-36 -45.5t-47.5 -38t-59.5 -21.5t-76.5 -9t-108 12v168q37 -6 73 -6q84 0 117.5 41t71.5 180z" />
    <glyph glyph-name="z" unicode="z" horiz-adv-x="698" 
d="M66 1010h614v-127l-426 -725h430v-158h-653v158l409 694h-374v158z" />
    <glyph glyph-name="braceleft" unicode="{" horiz-adv-x="663" 
d="M512 1364v-119q-26 0 -44 -3.5t-31.5 -8.5t-22 -17t-14 -24t-7.5 -36.5t-3 -47t-1 -61.5v-218q0 -62 -1 -96t-5 -70t-11.5 -53.5t-22 -36t-34.5 -28.5t-51 -21q37 -13 58.5 -28.5t36 -34t20.5 -55.5t8 -76t2 -113v-240q0 -56 1.5 -83t7.5 -55t19.5 -38.5t35.5 -17
t59 -6.5v-119q-69 -3 -115.5 2t-87 23.5t-63.5 54.5t-36 94.5t-13 144.5v244v61t-1.5 49t-4 41.5t-8 29.5t-13 24.5t-19.5 14.5t-27 10t-36 2v143q21 0 36 2t27 10t19.5 14.5t13 24.5t8 29.5t4 40.5t1.5 48v60v222q0 102 16.5 165.5t56 99t96 46.5t146.5 6z" />
    <glyph glyph-name="bar" unicode="|" horiz-adv-x="1024" 
d="M616 1536v-2048h-208v2048h208z" />
    <glyph glyph-name="braceright" unicode="}" horiz-adv-x="663" 
d="M152 -342v119q35 0 57 6t35.5 17t19.5 37.5t8 55.5t2 84v240q0 63 1 95.5t5 69.5t11 54t21.5 36t35 30t51.5 22q-31 11 -51.5 22t-35 30t-21.5 36.5t-11 54t-5 68.5t-1 94v218q0 55 -2 83.5t-8 55.5t-20 37.5t-35 16.5t-57 7v119q85 4 138 -5t96 -41.5t62 -99t19 -173.5
v-222q0 -137 11 -172q14 -47 64 -55q14 -2 33 -2v-143q-20 0 -35.5 -2t-27 -10t-19 -14.5t-13 -24t-8 -29.5t-4 -41t-1.5 -47v-59v-5v-244q0 -103 -17 -167t-57 -99t-96 -46t-145 -7z" />
    <glyph glyph-name="asciitilde" unicode="~" 
d="M145 514l-116 78q22 49 36 76.5t41.5 67.5t55 61.5t70 38t92.5 16.5q71 0 221 -61q85 -37 117.5 -47.5t68.5 -10.5q33 0 59 9.5t46.5 31t31.5 36.5t29 44l121 -70l-22 -44t-26 -45.5t-34 -49t-41 -42.5t-52 -38t-62 -23t-76 -10q-27 0 -71 12.5t-82 27l-111 44.5
q-18 7 -27 11q-64 24 -107 24q-32 0 -58.5 -12t-46.5 -36t-31 -42t-26 -47z" />
    <glyph glyph-name="uni00A0" unicode="&#xa0;" horiz-adv-x="512" 
 />
    <glyph glyph-name="exclamdown" unicode="&#xa1;" horiz-adv-x="698" 
d="M487 -356h-276l70 997h137zM463 758h-227v252h227v-252z" />
    <glyph glyph-name="cent" unicode="&#xa2;" 
d="M479 1366h119v-186q119 -18 191 -97t96 -239l-176 -23q-11 92 -37.5 134.5t-79.5 70.5v-651q57 26 80 66.5t37 133.5l176 -22q-4 -29 -7.5 -47.5t-13.5 -53.5t-22 -60t-34 -56.5t-49.5 -53.5t-69 -41t-91.5 -28v-223h-119v223q-91 14 -149 57q-57 43 -95 108t-52 133
t-17.5 103.5t-3.5 67.5q0 44 5 90t19.5 113.5t50 129.5t87.5 103q59 47 155 62v186zM483 379v639q-48 -25 -73 -68q-48 -87 -48 -252q0 -87 12 -149t34.5 -96t36.5 -47t38 -27z" />
    <glyph glyph-name="sterling" unicode="&#xa3;" 
d="M545 799h260v-162h-240q8 -58 8 -105q0 -64 -12 -118t-27 -88t-41.5 -66t-43 -46.5t-43.5 -35.5h153q150 0 223 35t125 147l162 -84q-24 -63 -50.5 -108.5t-62 -76t-71 -48.5t-90 -27.5t-105.5 -12.5t-131 -3h-518v180h70q29 0 47 2t48 9.5t57 27.5t50 53q54 72 54 201
q0 51 -15 164h-196v162h170q-23 145 -23 217q0 50 9.5 98.5t35.5 100t66 89.5t106 62.5t150 24.5q55 0 101 -10.5t79 -31.5t56 -40t42.5 -49.5t27 -45t19.5 -40.5l-161 -101q-52 146 -166 146q-42 0 -72 -18.5t-44 -41t-22 -56t-9 -50.5t-1 -37q0 -49 6 -90q5 -30 8.5 -55.5
t5.5 -35.5t3 -19t2 -17z" />
    <glyph glyph-name="currency" unicode="&#xa4;" 
d="M698 993l142 142l114 -115l-141 -143q49 -79 49 -172q0 -41 -8.5 -77.5t-16 -52.5t-22.5 -43l141 -143l-118 -117l-142 142q-28 -17 -46.5 -25.5t-52 -16t-75.5 -7.5q-86 0 -172 49l-141 -142l-115 115l139 141q0 1 -5.5 11.5l-8 15t-8 16.5t-8.5 20.5t-7 22.5t-6.5 26.5
t-4 29t-1.5 32.5q0 92 49 175l-143 141l119 119l141 -142q27 16 45 24t52 15.5t75 7.5q17 0 33.5 -1.5t29 -4t27 -6.5t23 -7t20.5 -8.5l16.5 -7.5t15 -8t11.5 -6zM522 528q73 0 124.5 51.5t51.5 125.5q0 72 -51.5 123t-124.5 51q-72 0 -123 -52.5t-51 -124.5t51.5 -123
t122.5 -51z" />
    <glyph glyph-name="yen" unicode="&#xa5;" 
d="M57 1366h230l252 -612l260 612h192l-252 -545h228v-125h-285l-59 -141h344v-125h-344v-430h-203v430h-322v125h320l-62 141h-258v125h203z" />
    <glyph glyph-name="brokenbar" unicode="&#xa6;" horiz-adv-x="1024" 
d="M616 1382v-716h-208v716h208zM616 358v-716h-208v716h208z" />
    <glyph glyph-name="section" unicode="&#xa7;" 
d="M913 1124l-174 -41q-8 30 -17.5 50.5t-30 49.5t-56.5 44.5t-86 15.5q-47 0 -80 -16.5t-48.5 -42t-21.5 -47.5t-6 -43q0 -33 10.5 -59.5t24.5 -43.5t49 -37t61 -31.5t85 -35.5q38 -15 60 -24.5t57 -27.5t55.5 -34t45.5 -41t39 -52t23.5 -64t9.5 -79q0 -44 -10 -83
t-22.5 -64t-36 -53.5t-37 -40.5l-39.5 -35l39 -28t40.5 -38t40 -54t26.5 -70t12 -93q0 -157 -109.5 -257.5t-294.5 -100.5q-68 0 -125.5 13.5t-96.5 33.5t-70.5 51t-49 57t-31 60.5t-18.5 52t-10 41.5l184 33q5 -24 10.5 -41t21.5 -47t37.5 -48.5t61 -33.5t90.5 -15
q100 0 150.5 48.5t50.5 126.5q0 38 -12 67t-28 48t-55.5 40.5t-68.5 34t-94 37.5q-41 15 -64 24.5t-61 27.5t-60 34t-49 41t-41.5 52t-25 64t-10.5 80q0 48 12.5 91.5t28.5 71.5t42.5 55.5t41.5 39.5t39 29l-30 27t-31 34.5t-32 49t-20.5 62t-9.5 81.5q0 138 93.5 229
t254.5 91q74 0 148.5 -23.5t125.5 -71.5q59 -57 92 -172zM438 752q-29 -23 -45.5 -39.5t-34.5 -52.5t-18 -78q0 -52 27.5 -87.5t85.5 -66.5q11 -6 50 -22l83.5 -33.5l52.5 -20.5q96 74 96 164q0 37 -20.5 73t-57.5 60q-43 25 -219 103z" />
    <glyph glyph-name="dieresis" unicode="&#xa8;" horiz-adv-x="1024" 
d="M352 1163q-39 0 -73.5 27.5t-34.5 75.5q0 45 33 74.5t75 29.5t75.5 -29.5t33.5 -74.5q0 -47 -35 -75t-74 -28zM672 1163q-39 0 -74 28.5t-35 74.5q0 44 33 74t76 30q42 0 75 -29.5t33 -74.5q0 -47 -34.5 -75t-73.5 -28z" />
    <glyph glyph-name="copyright" unicode="&#xa9;" horiz-adv-x="1599" 
d="M954 563l160 -18q-6 -41 -12 -68t-29.5 -74t-60.5 -79q-78 -66 -199 -66q-84 0 -146.5 31t-96.5 75.5t-54.5 105.5t-26.5 109t-6 99q0 61 8 116t30.5 113.5t58 101t96 70t139.5 27.5q53 0 96.5 -12.5t73 -31.5t52.5 -47.5t35.5 -53t22.5 -57t13 -50.5t6 -41l-162 -20
q-3 26 -6 41t-9 40t-15 40t-22.5 30.5t-34.5 23t-48 7.5q-153 0 -153 -299q0 -287 155 -287q58 0 87.5 40t47.5 134zM799 -25q-145 0 -277 56t-227.5 150.5t-152 225.5t-56.5 275q0 143 56.5 274.5t151.5 226.5t227.5 151.5t277.5 56.5q194 0 358.5 -95.5t260 -258.5
t95.5 -355t-95.5 -355t-260 -257.5t-358.5 -94.5zM799 111q153 0 283 76.5t206 208t76 286.5t-76 287t-206 209t-283 77t-282.5 -77t-205 -209t-75.5 -287t75.5 -286.5t205 -208t282.5 -76.5z" />
    <glyph glyph-name="ordfeminine" unicode="&#xaa;" 
d="M414 1171l-172 19q6 26 11.5 41.5t19 41t37.5 46t59 37.5q64 35 157 35q53 0 94.5 -10.5t68 -25t45.5 -41t28 -47t14 -55t5.5 -53.5t0.5 -53v-221q0 -143 19 -197h-150q-7 66 -10 107l-22.5 -30.5t-27.5 -30.5t-40.5 -32.5t-51 -19.5t-69.5 -10q-90 0 -151.5 53
t-61.5 154q0 248 389 243q0 26 -0.5 38t-5 35.5t-13.5 35t-27.5 21.5t-45.5 10q-35 0 -57.5 -16.5t-29 -32t-12.5 -37.5q-1 -3 -1 -5zM401 887q0 -86 80 -86q30 0 52.5 10t35.5 30t21 39t11.5 47t4 43t0.5 38q-16 3 -36 4t-51.5 -3.5t-56.5 -16t-43 -38.5t-18 -67z" />
    <glyph glyph-name="guillemotleft" unicode="&#xab;" horiz-adv-x="802" 
d="M713 199h-117l-193 325l193 328h117l-109 -328zM399 205h-116l-193 319l193 320h116l-108 -320z" />
    <glyph glyph-name="logicalnot" unicode="&#xac;" 
d="M768 459v280h-664v166h838v-446h-174z" />
    <glyph glyph-name="uni00AD" unicode="&#xad;" horiz-adv-x="593" 
d="M80 596h432v-168h-432v168z" />
    <glyph glyph-name="registered" unicode="&#xae;" 
d="M377 1188h153q168 0 168 -129q0 -36 -16.5 -63.5t-31.5 -37t-29 -14.5l90 -207h-107l-69 185h-60v-185h-98v451zM528 1122h-53v-135h53q70 0 70 72q0 63 -70 63zM524 1366q167 0 287.5 -120t120.5 -292q0 -170 -121 -288.5t-287 -118.5q-168 0 -288.5 119t-120.5 288
q0 171 120 291.5t289 120.5zM524 1274q-129 0 -220 -93.5t-91 -226.5q0 -130 91.5 -222.5t219.5 -92.5t219 92.5t91 222.5q0 133 -91 226.5t-219 93.5z" />
    <glyph glyph-name="macron" unicode="&#xaf;" horiz-adv-x="1024" 
d="M236 1331h552v-131h-552v131z" />
    <glyph glyph-name="degree" unicode="&#xb0;" 
d="M524 1391q131 0 224.5 -93.5t93.5 -226.5t-93.5 -226t-224.5 -93q-132 0 -225.5 93t-93.5 226q0 134 93 227t226 93zM524 1255q-66 0 -112.5 -54t-46.5 -130q0 -77 47 -130.5t112 -53.5t111.5 53.5t46.5 130.5q0 76 -46.5 130t-111.5 54z" />
    <glyph glyph-name="plusminus" unicode="&#xb1;" 
d="M610 766h332v-166h-332v-326h-174v326h-332v166h332v336h174v-336zM942 10h-838v166h838v-166z" />
    <glyph glyph-name="two.superior" unicode="&#xb2;" horiz-adv-x="698" 
d="M203 1081l-158 31q4 22 8 38t14.5 46t23.5 52t36 48.5t51 43.5t69.5 28.5t90.5 11.5q132 0 202 -72t70 -173q0 -47 -14 -91t-40 -80t-46.5 -59t-48.5 -49q-83 -83 -213 -166h368l-8 -143h-559v133q4 3 45.5 37t58.5 49l57 49.5t64 57.5t53 54t50 58q55 66 55 141
q0 50 -25.5 84.5t-78.5 34.5q-30 0 -53 -13.5t-35 -29.5t-21 -43t-11 -41t-5 -37z" />
    <glyph glyph-name="three.superior" unicode="&#xb3;" horiz-adv-x="698" 
d="M201 1133l-150 32q60 215 287 215q121 0 190.5 -61t69.5 -162q0 -34 -10 -62.5t-21.5 -45.5t-32.5 -33t-31.5 -22t-29.5 -15q19 -6 32 -12t37.5 -22t40 -35.5t28 -53.5t12.5 -76q0 -112 -81.5 -180t-213.5 -68q-52 0 -95.5 10.5t-72 25.5t-52 39t-36 43t-23 46
t-13.5 39.5t-7 32.5l151 33q5 -21 8 -32.5t14 -34.5t24.5 -35.5t38.5 -23.5t57 -11q46 0 83 28t37 96q0 33 -10.5 57t-25 36.5t-37 19.5t-40.5 8.5t-42 1.5h-68v119h68q22 0 35 0.5t35.5 6.5t35 17t23 33t10.5 54q0 112 -102 112q-32 0 -55 -11t-36.5 -31.5t-19.5 -37
t-12 -40.5z" />
    <glyph glyph-name="acute" unicode="&#xb4;" horiz-adv-x="1024" 
d="M414 1208l319 281l109 -137l-353 -222z" />
    <glyph glyph-name="mu" unicode="&#xb5;" horiz-adv-x="942" 
d="M610 1010h209v-1010h-192v152q-7 -29 -11.5 -45.5t-17.5 -45t-28 -44.5t-42 -29t-61 -13q-41 0 -71 16.5t-47 48t-25 55t-15 57.5v-494h-192v1352h209v-486q0 -138 4.5 -199.5t21.5 -99.5q15 -38 45 -60t70 -22q84 0 119 82q16 39 20 105.5t4 193.5v486z" />
    <glyph glyph-name="paragraph" unicode="&#xb6;" horiz-adv-x="1081" 
d="M924 1366v-1708h-138v1571h-102v-1571h-137v915h-76q-67 0 -103.5 2.5t-92 19t-99.5 50.5q-67 55 -97 145.5t-30 180.5q0 101 36.5 192.5t111.5 145.5q84 57 280 57h447z" />
    <glyph glyph-name="periodcentered" unicode="&#xb7;" horiz-adv-x="489" 
d="M131 655h227v-258h-227v258z" />
    <glyph glyph-name="cedilla" unicode="&#xb8;" horiz-adv-x="1024" 
d="M481 -2l99 2l-33 -96q63 3 104 -10q54 -19 75.5 -58.5t21.5 -77.5q0 -70 -55.5 -118t-149.5 -48q-42 0 -85.5 12.5t-60.5 21.5l-51 28l29 74q87 -37 149 -37q35 0 58.5 15.5t23.5 45.5t-17 48t-43.5 23.5t-59 7t-64.5 -0.5z" />
    <glyph glyph-name="one.superior" unicode="&#xb9;" horiz-adv-x="698" 
d="M348 1374h125v-702h139v-125h-454v125h149v495q-43 -37 -71 -55.5t-82 -44.5v152q113 58 194 155z" />
    <glyph glyph-name="ordmasculine" unicode="&#xba;" 
d="M524 1391q66 0 117.5 -21t83 -55t51.5 -81.5t27.5 -95t7.5 -100.5q0 -366 -289 -366q-83 0 -141.5 30.5t-88.5 84.5t-43 113t-13 130q0 53 6 99t25 96t50 85t84 58t123 23zM524 1278q-33 0 -56.5 -18t-36 -53t-18 -77.5t-5.5 -99.5q0 -126 27 -186t87 -60q59 0 88 57.5
t29 188.5q0 248 -115 248z" />
    <glyph glyph-name="guillemotright" unicode="&#xbb;" horiz-adv-x="802" 
d="M90 852h117l192 -328l-192 -325h-117l107 325zM403 852h117l193 -328l-193 -325h-117l109 325z" />
    <glyph glyph-name="onequarter" unicode="&#xbc;" horiz-adv-x="1570" 
d="M1016 307h209v377zM1044 1366h146l-666 -1366h-145zM1196 834h186v-517h107v-127h-107v-190h-168v190h-335v113zM332 1374h125v-702h139v-125h-455v125h150v495q-43 -37 -71.5 -55.5t-82.5 -44.5v152q31 16 51.5 28t63.5 47t80 80z" />
    <glyph glyph-name="onehalf" unicode="&#xbd;" horiz-adv-x="1570" 
d="M307 1374h125v-702h139v-125h-454v125h149v495q-43 -37 -71 -55.5t-82 -44.5v152q113 58 194 155zM1018 1366h147l-667 -1366h-146zM1036 537l-157 28q5 23 8 38t14 46t23.5 52.5t35.5 48.5t50.5 44t69.5 28.5t91 11.5q136 0 204.5 -74t68.5 -172q0 -141 -150 -279
q-83 -83 -213 -166h369l-8 -143h-561v133q242 192 329 305q56 73 56 142q0 45 -24.5 81.5t-80.5 36.5q-30 0 -53 -13t-35 -28.5t-21 -42.5t-11 -40.5t-5 -36.5z" />
    <glyph glyph-name="threequarters" unicode="&#xbe;" horiz-adv-x="1570" 
d="M1028 307h209v377zM1085 1366h146l-668 -1366h-145zM1208 834h187v-517h106v-127h-106v-190h-168v190h-336v113zM233 1133l-147 32q60 215 287 215q121 0 190.5 -61t69.5 -162q0 -42 -12.5 -74t-36 -53t-39 -30.5t-39.5 -20.5q19 -6 32 -12t37.5 -22t39.5 -35.5
t27.5 -53.5t12.5 -76q0 -112 -81.5 -180t-213.5 -68q-52 0 -95.5 10.5t-72 25.5t-52 39t-36 43t-23 46t-13.5 39.5t-7 32.5l152 33q6 -27 11 -42t20 -41.5t42.5 -40t67.5 -13.5q46 0 83.5 28t37.5 96q0 33 -10.5 57t-25 36.5t-37.5 19.5t-41 8.5t-42 1.5h-65v119h68
q22 0 35 0.5t35.5 6.5t35 17t23 33t10.5 54q0 112 -103 112q-26 0 -46.5 -8.5t-32.5 -19t-22 -29.5t-14 -31t-10 -32z" />
    <glyph glyph-name="questiondown" unicode="&#xbf;" horiz-adv-x="1011" 
d="M739 80l195 -37q-10 -112 -45 -195t-90.5 -132.5t-124.5 -73t-154 -23.5q-191 0 -292 106t-101 267q0 69 16.5 125.5t51 103t62.5 74t75 67.5q67 54 93.5 89t33 72.5t4.5 121.5h188q-1 -69 -2 -102t-6.5 -76.5t-16 -68.5t-29.5 -52.5t-48 -52.5l-73.5 -64t-52 -52
t-41 -56t-20 -58t-8.5 -75q0 -96 49.5 -143.5t126.5 -47.5q194 0 209 283zM668 764h-224v246h224v-246z" />
    <glyph glyph-name="Agrave" unicode="&#xc0;" horiz-adv-x="1011" 
d="M387 1366h254l365 -1366h-230l-86 342h-397l-84 -342h-217zM336 520h309l-153 627zM610 1585l-55 -98l-410 127l72 166z" />
    <glyph glyph-name="Aacute" unicode="&#xc1;" horiz-adv-x="1011" 
d="M387 1366h254l365 -1366h-230l-86 342h-397l-84 -342h-217zM336 520h309l-153 627zM356 1585l394 195l71 -166l-409 -127z" />
    <glyph glyph-name="Acircumflex" unicode="&#xc2;" horiz-adv-x="1011" 
d="M387 1366h254l365 -1366h-230l-86 342h-397l-84 -342h-217zM336 520h309l-153 627zM143 1501l369 260l369 -260l-185 -14l-184 102l-184 -102z" />
    <glyph glyph-name="Atilde" unicode="&#xc3;" horiz-adv-x="1011" 
d="M387 1366h254l365 -1366h-230l-86 342h-397l-84 -342h-217zM336 520h309l-153 627zM729 1708l92 -59q-17 -26 -31 -44t-42.5 -47t-66 -45t-79.5 -16q-50 0 -137 41q-74 35 -111 35q-32 0 -54 -17t-48 -53l-90 60q58 87 109.5 118t107.5 31q32 0 56 -7.5t114 -45.5
q56 -23 84 -23q23 0 44 13.5t30 25.5t22 33z" />
    <glyph glyph-name="Adieresis" unicode="&#xc4;" horiz-adv-x="1011" 
d="M387 1366h254l365 -1366h-230l-86 342h-397l-84 -342h-217zM336 520h309l-153 627zM348 1501q-40 0 -76 28.5t-36 76.5q0 47 34 77.5t78 30.5q46 0 79.5 -31t33.5 -75q0 -48 -35.5 -77.5t-77.5 -29.5zM676 1501q-41 0 -77 29t-36 78q0 45 34 75.5t79 30.5q44 0 78 -31
t34 -77q0 -48 -36 -76.5t-76 -28.5z" />
    <glyph glyph-name="Aring" unicode="&#xc5;" horiz-adv-x="1011" 
d="M387 1366h254l365 -1366h-230l-86 342h-397l-84 -342h-217zM336 520h309l-153 627zM512 1452q-70 0 -131.5 52t-61.5 141q0 84 57.5 139t135.5 55t135.5 -55.5t57.5 -141.5q0 -87 -61.5 -138.5t-131.5 -51.5zM512 1554q33 0 60.5 25.5t27.5 65.5t-27.5 66t-60.5 26
t-60.5 -26t-27.5 -66q0 -41 27.5 -66t60.5 -25z" />
    <glyph glyph-name="AE" unicode="&#xc6;" horiz-adv-x="1429" 
d="M1411 184v-184h-770v373h-356l-162 -373h-205l621 1366h870v-180h-549v-393h430v-181h-430v-428h551zM643 549v670l-287 -670h287z" />
    <glyph glyph-name="Ccedilla" unicode="&#xc7;" horiz-adv-x="1081" 
d="M1026 924l-209 -29l-8 54t-12 57t-18.5 60t-27.5 52t-39.5 45.5t-53.5 28.5t-70 12q-57 0 -101 -23.5t-72 -67t-46.5 -93.5t-27.5 -114.5t-12 -117.5t-3 -116q0 -510 262 -510q101 0 152 70.5t77 226.5l209 -29q-6 -38 -8.5 -51.5t-14.5 -63t-26 -81t-40.5 -75
t-59.5 -75.5q-108 -101 -285 -109l-25 -79q63 4 107 -11q32 -11 54.5 -30t31.5 -41t12.5 -38t3.5 -30q0 -69 -55 -120.5t-156 -51.5q-95 0 -203 66l29 75q98 -37 154 -37q38 0 59 17t21 45q0 56 -66 72q-30 6 -119 6l54 164q-32 7 -51 12.5t-57 20t-71.5 38.5t-60.5 56
q-168 192 -168 569q0 55 3.5 108t16 127t33 136.5t58.5 127.5t88.5 110.5t127 74.5t169.5 29q78 0 143.5 -20.5t109 -51t78 -76.5t53 -85.5t32.5 -91t19 -79t9 -63.5z" />
    <glyph glyph-name="Egrave" unicode="&#xc8;" horiz-adv-x="942" 
d="M131 1366h780v-180h-555v-393h437v-181h-437v-428h566v-184h-791v1366zM651 1585l-55 -98l-410 127l72 166z" />
    <glyph glyph-name="Eacute" unicode="&#xc9;" horiz-adv-x="942" 
d="M131 1366h780v-180h-555v-393h437v-181h-437v-428h566v-184h-791v1366zM387 1585l393 195l72 -166l-410 -127z" />
    <glyph glyph-name="Ecircumflex" unicode="&#xca;" horiz-adv-x="942" 
d="M131 1366h780v-180h-555v-393h437v-181h-437v-428h566v-184h-791v1366zM113 1501l368 260l369 -260l-184 -14l-185 102l-184 -102z" />
    <glyph glyph-name="Edieresis" unicode="&#xcb;" horiz-adv-x="942" 
d="M131 1366h780v-180h-555v-393h437v-181h-437v-428h566v-184h-791v1366zM348 1501q-40 0 -76 28.5t-36 76.5q0 47 34 77.5t78 30.5q46 0 79.5 -31t33.5 -75q0 -48 -35.5 -77.5t-77.5 -29.5zM676 1501q-41 0 -77 29t-36 78q0 45 34 75.5t79 30.5q44 0 78 -31t34 -77
q0 -48 -36 -76.5t-76 -28.5z" />
    <glyph glyph-name="Igrave" unicode="&#xcc;" horiz-adv-x="489" 
d="M131 1366h225v-1366h-225v1366zM365 1585l-56 -98l-409 127l71 166z" />
    <glyph glyph-name="Iacute" unicode="&#xcd;" horiz-adv-x="489" 
d="M131 1366h225v-1366h-225v1366zM141 1585l394 195l71 -166l-409 -127z" />
    <glyph glyph-name="Icircumflex" unicode="&#xce;" horiz-adv-x="489" 
d="M131 1366h225v-1366h-225v1366zM-133 1501l369 260l368 -260l-184 -14l-184 102l-185 -102z" />
    <glyph glyph-name="Idieresis" unicode="&#xcf;" horiz-adv-x="489" 
d="M131 1366h225v-1366h-225v1366zM82 1501q-41 0 -77 28.5t-36 76.5q0 47 34.5 77.5t78.5 30.5q46 0 79.5 -31t33.5 -75q0 -48 -35.5 -77.5t-77.5 -29.5zM410 1501q-41 0 -77 29t-36 78q0 45 34 75.5t79 30.5q44 0 78 -31t34 -77q0 -48 -36 -76.5t-76 -28.5z" />
    <glyph glyph-name="Eth" unicode="&#xd0;" horiz-adv-x="1150" 
d="M14 612v181h117v573h307q321 0 465 -168q162 -187 162 -504q0 -209 -70 -366.5t-188 -239.5q-124 -88 -352 -88h-324v612h-117zM356 612v-432h95q157 0 239 82q135 131 135 420q0 84 -10.5 155.5t-37.5 137.5t-68.5 111.5t-107 72.5t-150.5 27h-95v-393h252v-181h-252z
" />
    <glyph glyph-name="Ntilde" unicode="&#xd1;" horiz-adv-x="1150" 
d="M123 1366h266l451 -985v985h188v-1366h-211l-506 1094v-1094h-188v1366zM831 1708l93 -59q-17 -26 -31 -44t-42.5 -47t-66 -45t-79.5 -16q-51 0 -138 41q-74 35 -110 35q-32 0 -54.5 -17.5t-48.5 -52.5l-90 60q58 87 109.5 118t107.5 31q32 0 56 -7.5t114 -45.5
q56 -23 84 -23q23 0 44 13.5t30 25.5t22 33z" />
    <glyph glyph-name="Ograve" unicode="&#xd2;" horiz-adv-x="1150" 
d="M578 1391q85 0 155.5 -23t120 -61.5t88 -94.5t62 -116.5t38 -133.5t20 -140t5.5 -140q0 -67 -4.5 -128.5t-18 -134.5t-35.5 -134t-59.5 -120t-87 -99.5t-122 -65.5t-160.5 -25q-85 0 -156 23t-121.5 61.5t-89 94.5t-62.5 116.5t-39 133t-20.5 139t-5.5 139.5
q0 103 11.5 194.5t44.5 189t85.5 167t142.5 114t208 44.5zM578 1204q-80 0 -125 -37t-74 -102q-55 -126 -55 -383q0 -250 55 -381q31 -70 77 -104.5t124 -34.5t122 37.5t72 101.5q55 130 55 381q0 254 -55 383q-29 64 -72.5 101.5t-123.5 37.5zM692 1585l-55 -98l-410 127
l72 166z" />
    <glyph glyph-name="Oacute" unicode="&#xd3;" horiz-adv-x="1150" 
d="M578 1391q85 0 155.5 -23t120 -61.5t88 -94.5t62 -116.5t38 -133.5t20 -140t5.5 -140q0 -67 -4.5 -128.5t-18 -134.5t-35.5 -134t-59.5 -120t-87 -99.5t-122 -65.5t-160.5 -25q-85 0 -156 23t-121.5 61.5t-89 94.5t-62.5 116.5t-39 133t-20.5 139t-5.5 139.5
q0 103 11.5 194.5t44.5 189t85.5 167t142.5 114t208 44.5zM578 1204q-80 0 -125 -37t-74 -102q-55 -126 -55 -383q0 -250 55 -381q31 -70 77 -104.5t124 -34.5t122 37.5t72 101.5q55 130 55 381q0 254 -55 383q-29 64 -72.5 101.5t-123.5 37.5zM469 1585l393 195l72 -166
l-410 -127z" />
    <glyph glyph-name="Ocircumflex" unicode="&#xd4;" horiz-adv-x="1150" 
d="M578 1391q85 0 155.5 -23t120 -61.5t88 -94.5t62 -116.5t38 -133.5t20 -140t5.5 -140q0 -67 -4.5 -128.5t-18 -134.5t-35.5 -134t-59.5 -120t-87 -99.5t-122 -65.5t-160.5 -25q-85 0 -156 23t-121.5 61.5t-89 94.5t-62.5 116.5t-39 133t-20.5 139t-5.5 139.5
q0 103 11.5 194.5t44.5 189t85.5 167t142.5 114t208 44.5zM578 1204q-80 0 -125 -37t-74 -102q-55 -126 -55 -383q0 -250 55 -381q31 -70 77 -104.5t124 -34.5t122 37.5t72 101.5q55 130 55 381q0 254 -55 383q-29 64 -72.5 101.5t-123.5 37.5zM205 1501l368 260l369 -260
l-184 -14l-185 102l-184 -102z" />
    <glyph glyph-name="Otilde" unicode="&#xd5;" horiz-adv-x="1150" 
d="M578 1391q85 0 155.5 -23t120 -61.5t88 -94.5t62 -116.5t38 -133.5t20 -140t5.5 -140q0 -67 -4.5 -128.5t-18 -134.5t-35.5 -134t-59.5 -120t-87 -99.5t-122 -65.5t-160.5 -25q-85 0 -156 23t-121.5 61.5t-89 94.5t-62.5 116.5t-39 133t-20.5 139t-5.5 139.5
q0 103 11.5 194.5t44.5 189t85.5 167t142.5 114t208 44.5zM578 1204q-80 0 -125 -37t-74 -102q-55 -126 -55 -383q0 -250 55 -381q31 -70 77 -104.5t124 -34.5t122 37.5t72 101.5q55 130 55 381q0 254 -55 383q-29 64 -72.5 101.5t-123.5 37.5zM811 1708l92 -59
q-17 -26 -31 -44t-42.5 -47t-66 -45t-79.5 -16q-50 0 -137 41q-74 35 -111 35q-32 0 -54 -17t-48 -53l-90 60q58 87 109.5 118t107.5 31q32 0 56 -7.5t114 -45.5q56 -23 84 -23q23 0 44 13.5t30 25.5t22 33z" />
    <glyph glyph-name="Odieresis" unicode="&#xd6;" horiz-adv-x="1150" 
d="M578 1391q85 0 155.5 -23t120 -61.5t88 -94.5t62 -116.5t38 -133.5t20 -140t5.5 -140q0 -67 -4.5 -128.5t-18 -134.5t-35.5 -134t-59.5 -120t-87 -99.5t-122 -65.5t-160.5 -25q-85 0 -156 23t-121.5 61.5t-89 94.5t-62.5 116.5t-39 133t-20.5 139t-5.5 139.5
q0 103 11.5 194.5t44.5 189t85.5 167t142.5 114t208 44.5zM578 1204q-80 0 -125 -37t-74 -102q-55 -126 -55 -383q0 -250 55 -381q31 -70 77 -104.5t124 -34.5t122 37.5t72 101.5q55 130 55 381q0 254 -55 383q-29 64 -72.5 101.5t-123.5 37.5zM410 1501q-41 0 -77 28.5
t-36 76.5q0 47 34.5 77.5t78.5 30.5q46 0 79 -31t33 -75q0 -48 -35 -77.5t-77 -29.5zM737 1501q-41 0 -76.5 29t-35.5 78q0 45 33.5 75.5t78.5 30.5q44 0 78.5 -31t34.5 -77q0 -48 -36 -76.5t-77 -28.5z" />
    <glyph glyph-name="multiply" unicode="&#xd7;" 
d="M522 807l250 248l123 -123l-248 -250l248 -248l-123 -123l-250 248l-248 -248l-122 123l247 248l-247 250l122 123z" />
    <glyph glyph-name="Oslash" unicode="&#xd8;" horiz-adv-x="1150" 
d="M889 1442h143l-108 -215q137 -185 137 -545q0 -110 -12.5 -205.5t-46.5 -190.5t-87 -161.5t-140 -108t-200 -41.5q-142 0 -243 68l-62 -125h-143l106 215q-48 56 -79.5 139t-44 171t-16 141t-3.5 104q0 64 5 125.5t19 133.5t36 133t59.5 120t87 100t121 66t157.5 25
q140 0 256 -72zM348 332l387 831q-64 51 -157 51q-82 0 -130.5 -36t-80.5 -105q-58 -133 -58 -395q0 -223 39 -346zM807 1018l-381 -823q55 -43 147 -43q185 0 238 219q31 152 31 311q0 224 -35 336z" />
    <glyph glyph-name="Ugrave" unicode="&#xd9;" horiz-adv-x="1116" 
d="M121 1366h221v-848q0 -40 0.5 -60.5t2 -57t5.5 -56t12 -49t19 -45.5t28 -35.5t39.5 -29t53 -16.5t67.5 -7t66.5 6.5t51.5 15.5t39 28t28 34.5t19 44.5t11.5 49.5t5.5 57.5t2.5 59t0.5 65v844h202v-834q0 -74 -1.5 -117.5t-9 -104t-21.5 -100t-41.5 -80.5t-67.5 -71
q-114 -84 -297 -84q-306 0 -393 211q-42 100 -43 297v35v848zM651 1585l-55 -98l-410 127l72 166z" />
    <glyph glyph-name="Uacute" unicode="&#xda;" horiz-adv-x="1116" 
d="M121 1366h221v-848q0 -40 0.5 -60.5t2 -57t5.5 -56t12 -49t19 -45.5t28 -35.5t39.5 -29t53 -16.5t67.5 -7t66.5 6.5t51.5 15.5t39 28t28 34.5t19 44.5t11.5 49.5t5.5 57.5t2.5 59t0.5 65v844h202v-834q0 -74 -1.5 -117.5t-9 -104t-21.5 -100t-41.5 -80.5t-67.5 -71
q-114 -84 -297 -84q-306 0 -393 211q-42 100 -43 297v35v848zM469 1585l393 195l72 -166l-410 -127z" />
    <glyph glyph-name="Ucircumflex" unicode="&#xdb;" horiz-adv-x="1116" 
d="M121 1366h221v-848q0 -40 0.5 -60.5t2 -57t5.5 -56t12 -49t19 -45.5t28 -35.5t39.5 -29t53 -16.5t67.5 -7t66.5 6.5t51.5 15.5t39 28t28 34.5t19 44.5t11.5 49.5t5.5 57.5t2.5 59t0.5 65v844h202v-834q0 -74 -1.5 -117.5t-9 -104t-21.5 -100t-41.5 -80.5t-67.5 -71
q-114 -84 -297 -84q-306 0 -393 211q-42 100 -43 297v35v848zM195 1501l368 260l369 -260l-184 -14l-185 102l-184 -102z" />
    <glyph glyph-name="Udieresis" unicode="&#xdc;" horiz-adv-x="1116" 
d="M121 1366h221v-848q0 -40 0.5 -60.5t2 -57t5.5 -56t12 -49t19 -45.5t28 -35.5t39.5 -29t53 -16.5t67.5 -7t66.5 6.5t51.5 15.5t39 28t28 34.5t19 44.5t11.5 49.5t5.5 57.5t2.5 59t0.5 65v844h202v-834q0 -74 -1.5 -117.5t-9 -104t-21.5 -100t-41.5 -80.5t-67.5 -71
q-114 -84 -297 -84q-306 0 -393 211q-42 100 -43 297v35v848zM410 1501q-41 0 -77 28.5t-36 76.5q0 47 34.5 77.5t78.5 30.5q46 0 79 -31t33 -75q0 -48 -35 -77.5t-77 -29.5zM737 1501q-41 0 -76.5 29t-35.5 78q0 45 33.5 75.5t78.5 30.5q44 0 78.5 -31t34.5 -77
q0 -48 -36 -76.5t-77 -28.5z" />
    <glyph glyph-name="Yacute" unicode="&#xdd;" horiz-adv-x="837" 
d="M-63 1366h245l250 -569l254 569h217l-379 -788v-578h-225v578zM346 1585l393 195l72 -166l-410 -127z" />
    <glyph glyph-name="Thorn" unicode="&#xde;" horiz-adv-x="1011" 
d="M131 1366h225v-213h113q140 0 232.5 -21.5t158.5 -91.5q111 -116 111 -305q0 -92 -36 -188t-120 -154q-36 -25 -80.5 -41t-97.5 -22t-83 -7t-81 -1h-117v-322h-225v1366zM469 979h-113v-477h113q31 0 48 0.5t49 5t51 13t44 26t38.5 42t23.5 63.5t10 89q0 98 -47 166
q-18 26 -40 41.5t-53.5 21.5t-54.5 7.5t-69 1.5z" />
    <glyph glyph-name="germandbls" unicode="&#xdf;" 
d="M16 750v168h119q0 74 2 115t21.5 113.5t58.5 127.5q36 51 87 86t102.5 49.5t86 19.5t64.5 5q154 0 245 -84.5t91 -206.5q0 -120 -88.5 -198t-239.5 -114q14 -26 37.5 -43t104.5 -55q51 -24 83.5 -41.5t79.5 -52.5t75 -71.5t48.5 -93.5t20.5 -124q0 -76 -23.5 -143
t-68.5 -119t-116.5 -82.5t-160.5 -30.5q-85 0 -199 37l52 154q85 -33 151 -33q78 0 123 51.5t45 134.5q0 46 -12.5 80.5t-43.5 63t-58.5 46t-81.5 46.5q-105 59 -154 113t-49 131q0 51 26 123q248 48 248 198q0 72 -45 117t-119 45q-98 0 -147 -88q-17 -30 -25.5 -76.5
t-10 -83.5t-1.5 -112v-1016h-209v844h-119z" />
    <glyph glyph-name="agrave" unicode="&#xe0;" horiz-adv-x="942" 
d="M309 723l-200 27q13 74 49 129t77 83.5t93.5 46t88.5 21.5t72 4q187 0 279 -108q29 -33 44 -89.5t17 -98t2 -115.5v-342q0 -207 17 -281h-195q-14 69 -14 168q-17 -31 -28 -49t-37 -49t-53.5 -49t-71.5 -32t-95 -14q-126 0 -204 77t-78 214q0 118 57.5 201t151.5 115
q138 47 342 41v41q0 32 -1 52t-9 55t-22.5 56t-44.5 37.5t-73 16.5q-38 0 -67.5 -13t-45.5 -29.5t-28 -42t-15.5 -40t-7.5 -33.5zM623 442v52q-33 2 -62 2q-70 0 -121 -14t-79.5 -34.5t-45 -51t-21.5 -56.5t-5 -59q0 -152 135 -152q76 0 137.5 79.5t61.5 233.5zM625 1208
l-76 -78l-352 222l108 137z" />
    <glyph glyph-name="aacute" unicode="&#xe1;" horiz-adv-x="942" 
d="M309 723l-200 27q13 74 49 129t77 83.5t93.5 46t88.5 21.5t72 4q187 0 279 -108q29 -33 44 -89.5t17 -98t2 -115.5v-342q0 -207 17 -281h-195q-14 69 -14 168q-17 -31 -28 -49t-37 -49t-53.5 -49t-71.5 -32t-95 -14q-126 0 -204 77t-78 214q0 118 57.5 201t151.5 115
q138 47 342 41v41q0 32 -1 52t-9 55t-22.5 56t-44.5 37.5t-73 16.5q-38 0 -67.5 -13t-45.5 -29.5t-28 -42t-15.5 -40t-7.5 -33.5zM623 442v52q-33 2 -62 2q-70 0 -121 -14t-79.5 -34.5t-45 -51t-21.5 -56.5t-5 -59q0 -152 135 -152q76 0 137.5 79.5t61.5 233.5zM373 1208
l319 281l109 -137l-352 -222z" />
    <glyph glyph-name="acircumflex" unicode="&#xe2;" horiz-adv-x="942" 
d="M309 723l-200 27q13 74 49 129t77 83.5t93.5 46t88.5 21.5t72 4q187 0 279 -108q29 -33 44 -89.5t17 -98t2 -115.5v-342q0 -207 17 -281h-195q-14 69 -14 168q-17 -31 -28 -49t-37 -49t-53.5 -49t-71.5 -32t-95 -14q-126 0 -204 77t-78 214q0 118 57.5 201t151.5 115
q138 47 342 41v41q0 32 -1 52t-9 55t-22.5 56t-44.5 37.5t-73 16.5q-38 0 -67.5 -13t-45.5 -29.5t-28 -42t-15.5 -40t-7.5 -33.5zM623 442v52q-33 2 -62 2q-70 0 -121 -14t-79.5 -34.5t-45 -51t-21.5 -56.5t-5 -59q0 -152 135 -152q76 0 137.5 79.5t61.5 233.5zM115 1153
l356 274l356 -274l-176 -14l-180 121l-180 -121z" />
    <glyph glyph-name="atilde" unicode="&#xe3;" horiz-adv-x="942" 
d="M309 723l-200 27q13 74 49 129t77 83.5t93.5 46t88.5 21.5t72 4q187 0 279 -108q29 -33 44 -89.5t17 -98t2 -115.5v-342q0 -207 17 -281h-195q-14 69 -14 168q-17 -31 -28 -49t-37 -49t-53.5 -49t-71.5 -32t-95 -14q-126 0 -204 77t-78 214q0 118 57.5 201t151.5 115
q138 47 342 41v41q0 32 -1 52t-9 55t-22.5 56t-44.5 37.5t-73 16.5q-38 0 -67.5 -13t-45.5 -29.5t-28 -42t-15.5 -40t-7.5 -33.5zM623 442v52q-33 2 -62 2q-70 0 -121 -14t-79.5 -34.5t-45 -51t-21.5 -56.5t-5 -59q0 -152 135 -152q76 0 137.5 79.5t61.5 233.5zM694 1370
l86 -57q-18 -29 -30 -45.5t-39.5 -47t-61.5 -46t-74 -15.5q-51 0 -129 45q-71 41 -102 41q-21 0 -40 -12.5t-28.5 -23.5t-29.5 -38l-84 58q48 79 96 115t107 36q29 0 54.5 -8.5t74.5 -34.5q72 -43 110 -43q49 0 90 76z" />
    <glyph glyph-name="adieresis" unicode="&#xe4;" horiz-adv-x="942" 
d="M309 723l-200 27q13 74 49 129t77 83.5t93.5 46t88.5 21.5t72 4q187 0 279 -108q29 -33 44 -89.5t17 -98t2 -115.5v-342q0 -207 17 -281h-195q-14 69 -14 168q-17 -31 -28 -49t-37 -49t-53.5 -49t-71.5 -32t-95 -14q-126 0 -204 77t-78 214q0 118 57.5 201t151.5 115
q138 47 342 41v41q0 32 -1 52t-9 55t-22.5 56t-44.5 37.5t-73 16.5q-38 0 -67.5 -13t-45.5 -29.5t-28 -42t-15.5 -40t-7.5 -33.5zM623 442v52q-33 2 -62 2q-70 0 -121 -14t-79.5 -34.5t-45 -51t-21.5 -56.5t-5 -59q0 -152 135 -152q76 0 137.5 79.5t61.5 233.5zM311 1163
q-39 0 -73.5 27.5t-34.5 75.5q0 45 33 74.5t75 29.5t75.5 -29.5t33.5 -74.5q0 -47 -35 -75t-74 -28zM631 1163q-39 0 -74 28.5t-35 74.5q0 44 33 74t76 30q42 0 75 -29.5t33 -74.5q0 -47 -34.5 -75t-73.5 -28z" />
    <glyph glyph-name="aring" unicode="&#xe5;" horiz-adv-x="942" 
d="M309 723l-200 27q13 74 49 129t77 83.5t93.5 46t88.5 21.5t72 4q187 0 279 -108q29 -33 44 -89.5t17 -98t2 -115.5v-342q0 -207 17 -281h-195q-14 69 -14 168q-17 -31 -28 -49t-37 -49t-53.5 -49t-71.5 -32t-95 -14q-126 0 -204 77t-78 214q0 118 57.5 201t151.5 115
q138 47 342 41v41q0 32 -1 52t-9 55t-22.5 56t-44.5 37.5t-73 16.5q-38 0 -67.5 -13t-45.5 -29.5t-28 -42t-15.5 -40t-7.5 -33.5zM623 442v52q-33 2 -62 2q-70 0 -121 -14t-79.5 -34.5t-45 -51t-21.5 -56.5t-5 -59q0 -152 135 -152q76 0 137.5 79.5t61.5 233.5zM471 1114
q-68 0 -128 50.5t-60 135.5q0 82 56 136.5t132 54.5q75 0 131.5 -55t56.5 -136q0 -84 -59.5 -135t-128.5 -51zM471 1214q33 0 59.5 24t26.5 62q0 39 -25.5 65t-60.5 26q-33 0 -59.5 -25t-26.5 -63q0 -40 27 -64.5t59 -24.5z" />
    <glyph glyph-name="ae" unicode="&#xe6;" horiz-adv-x="1429" 
d="M1380 473h-567q0 -32 0.5 -50.5t4 -59t10 -66.5t21 -60t34.5 -54.5t52 -35t73 -14.5q37 0 67 14t46.5 31t30 47.5t18.5 47t12 46.5l186 -24q-6 -27 -11 -46.5t-19 -55.5t-30.5 -62.5t-45 -57.5t-62.5 -51t-84.5 -33.5t-109.5 -13.5t-109 15t-80 34t-57 50t-37.5 48.5
t-24.5 43.5q-17 -28 -29 -45t-42.5 -48.5t-62 -49.5t-83.5 -33t-112 -15q-79 0 -139 26t-93 70t-49 94t-16 105q0 113 57.5 198t153.5 118q118 39 329 39q-1 34 0 69.5t-7 69.5t-22 60.5t-44.5 42.5t-75.5 16q-38 0 -68 -13.5t-46.5 -30.5t-28.5 -43.5t-15.5 -40.5t-7.5 -34
l-191 27q26 169 166 241q86 45 201 45q118 0 191 -47q20 -13 36 -27.5t22 -22.5l19 -26q20 22 36 36.5t49.5 36.5t80.5 34t105 12q61 0 116.5 -22.5t94.5 -59t66 -76t42 -79.5q21 -56 32 -118.5t13.5 -99.5t3.5 -102zM817 614h350q-9 269 -170 269q-46 0 -80.5 -22
t-54.5 -61.5t-31 -85t-14 -100.5zM612 494q-31 4 -57 4q-79 0 -134 -17t-83.5 -48t-40.5 -67t-12 -83q0 -154 131 -154q15 0 30.5 2t50.5 22t59.5 54.5t42 109t13.5 177.5z" />
    <glyph glyph-name="ccedilla" unicode="&#xe7;" horiz-adv-x="837" 
d="M823 670l-200 -21q-6 43 -11 69.5t-16 58.5t-26 49.5t-40.5 29.5t-60.5 12q-53 0 -88 -25t-54.5 -77t-27.5 -119t-8 -164q0 -29 0.5 -48t4 -57.5t9.5 -65.5t19.5 -60.5t32 -54.5t48 -35.5t66.5 -14.5t64.5 15.5t42.5 36t25 54.5t13.5 56t6.5 56l200 -17q-8 -53 -17 -93
t-25.5 -84t-42 -75t-61.5 -58t-88 -43t-118 -20l-25 -71q70 4 105 -10q53 -17 75.5 -55.5t22.5 -80.5q0 -71 -56 -118.5t-149 -47.5q-43 0 -86.5 13t-60 21t-51.5 28l28 76q85 -39 152 -39q39 0 60.5 16.5t21.5 46.5q0 29 -17 46.5t-44 23t-60 7t-65 -0.5l55 152
q-130 29 -195 110q-110 140 -110 410q0 63 6.5 120.5t22 120.5t45 113t71.5 91.5t106.5 64t145.5 22.5q62 0 113.5 -15.5t85.5 -37t61.5 -57.5t42 -64t26.5 -71t16 -64t9 -55z" />
    <glyph glyph-name="egrave" unicode="&#xe8;" horiz-adv-x="907" 
d="M856 473h-569q0 -35 0.5 -55t4 -61t10.5 -66.5t21 -58.5t34 -52t52 -33t72 -14q39 0 69 13.5t47.5 31t31 47.5t18.5 48.5t12 48.5l189 -27q-6 -25 -11 -42.5t-19 -53.5t-30.5 -62.5t-46.5 -59t-65.5 -53t-87.5 -35t-113 -14.5q-108 0 -188 42.5t-125 116.5t-66.5 162.5
t-21.5 192.5q0 268 112.5 406.5t290.5 138.5q112 0 190.5 -52.5t114.5 -123.5q33 -64 50 -137.5t20 -119.5t4 -128zM291 614h354q0 85 -18 144q-15 47 -46.5 76.5t-58 38t-51.5 8.5q-161 0 -180 -267zM608 1208l-76 -78l-352 222l109 137z" />
    <glyph glyph-name="eacute" unicode="&#xe9;" horiz-adv-x="907" 
d="M856 473h-569q0 -35 0.5 -55t4 -61t10.5 -66.5t21 -58.5t34 -52t52 -33t72 -14q39 0 69 13.5t47.5 31t31 47.5t18.5 48.5t12 48.5l189 -27q-6 -25 -11 -42.5t-19 -53.5t-30.5 -62.5t-46.5 -59t-65.5 -53t-87.5 -35t-113 -14.5q-108 0 -188 42.5t-125 116.5t-66.5 162.5
t-21.5 192.5q0 268 112.5 406.5t290.5 138.5q112 0 190.5 -52.5t114.5 -123.5q33 -64 50 -137.5t20 -119.5t4 -128zM291 614h354q0 85 -18 144q-15 47 -46.5 76.5t-58 38t-51.5 8.5q-161 0 -180 -267zM356 1208l320 281l108 -137l-352 -222z" />
    <glyph glyph-name="ecircumflex" unicode="&#xea;" horiz-adv-x="907" 
d="M856 473h-569q0 -35 0.5 -55t4 -61t10.5 -66.5t21 -58.5t34 -52t52 -33t72 -14q39 0 69 13.5t47.5 31t31 47.5t18.5 48.5t12 48.5l189 -27q-6 -25 -11 -42.5t-19 -53.5t-30.5 -62.5t-46.5 -59t-65.5 -53t-87.5 -35t-113 -14.5q-108 0 -188 42.5t-125 116.5t-66.5 162.5
t-21.5 192.5q0 268 112.5 406.5t290.5 138.5q112 0 190.5 -52.5t114.5 -123.5q33 -64 50 -137.5t20 -119.5t4 -128zM291 614h354q0 85 -18 144q-15 47 -46.5 76.5t-58 38t-51.5 8.5q-161 0 -180 -267zM98 1153l357 274l356 -274l-176 -14l-180 121l-181 -121z" />
    <glyph glyph-name="edieresis" unicode="&#xeb;" horiz-adv-x="907" 
d="M856 473h-569q0 -35 0.5 -55t4 -61t10.5 -66.5t21 -58.5t34 -52t52 -33t72 -14q39 0 69 13.5t47.5 31t31 47.5t18.5 48.5t12 48.5l189 -27q-6 -25 -11 -42.5t-19 -53.5t-30.5 -62.5t-46.5 -59t-65.5 -53t-87.5 -35t-113 -14.5q-108 0 -188 42.5t-125 116.5t-66.5 162.5
t-21.5 192.5q0 268 112.5 406.5t290.5 138.5q112 0 190.5 -52.5t114.5 -123.5q33 -64 50 -137.5t20 -119.5t4 -128zM291 614h354q0 85 -18 144q-15 47 -46.5 76.5t-58 38t-51.5 8.5q-161 0 -180 -267zM295 1163q-39 0 -74 27.5t-35 75.5q0 45 33.5 74.5t75.5 29.5t75 -29.5
t33 -74.5q0 -47 -34.5 -75t-73.5 -28zM614 1163q-39 0 -73.5 28.5t-34.5 74.5q0 44 32.5 74t75.5 30q42 0 75.5 -29.5t33.5 -74.5q0 -47 -35 -75t-74 -28z" />
    <glyph glyph-name="igrave" unicode="&#xec;" horiz-adv-x="454" 
d="M123 1010h209v-1010h-209v1010zM381 1208l-76 -78l-352 222l108 137z" />
    <glyph glyph-name="iacute" unicode="&#xed;" horiz-adv-x="454" 
d="M123 1010h209v-1010h-209v1010zM129 1208l320 281l108 -137l-352 -222z" />
    <glyph glyph-name="icircumflex" unicode="&#xee;" horiz-adv-x="454" 
d="M123 1010h209v-1010h-209v1010zM-129 1153l356 274l357 -274l-176 -14l-181 121l-180 -121z" />
    <glyph glyph-name="idieresis" unicode="&#xef;" horiz-adv-x="454" 
d="M123 1010h209v-1010h-209v1010zM68 1163q-39 0 -74 27.5t-35 75.5q0 45 33.5 74.5t75.5 29.5t75 -29.5t33 -74.5q0 -47 -34.5 -75t-73.5 -28zM387 1163q-39 0 -73.5 28.5t-34.5 74.5q0 44 32.5 74t75.5 30q42 0 75.5 -29.5t33.5 -74.5q0 -47 -35 -75t-74 -28z" />
    <glyph glyph-name="eth" unicode="&#xf0;" horiz-adv-x="907" 
d="M276 506q0 -196 44 -284.5t135 -88.5q89 0 132.5 87.5t43.5 285.5q0 195 -43 283t-135 88q-93 0 -135 -92t-42 -279zM860 1386l-231 -120q223 -402 223 -774q0 -47 -3.5 -91t-15 -97.5t-29 -98.5t-48.5 -88.5t-72 -74t-100.5 -49t-132.5 -18.5q-91 0 -161 30.5
t-113.5 80.5t-71.5 120.5t-39 143t-11 156.5q0 109 17.5 196.5t48 143t66 94.5t76.5 58.5t74 27.5t64 8q35 0 64.5 -8.5t43.5 -17t36 -25.5q-36 105 -86 193l-215 -113l-64 115l213 112l-53 82l168 88l53 -82l236 123z" />
    <glyph glyph-name="ntilde" unicode="&#xf1;" horiz-adv-x="942" 
d="M123 0v1010h192v-156q10 21 13 28t17 31t24.5 35.5t31.5 31t43 29t53.5 17.5t67.5 8q163 0 226 -125q15 -30 23 -75.5t9.5 -82t1.5 -100.5v-651h-209v639q0 38 -0.5 54.5t-2.5 47t-6 44t-13 32.5t-21.5 27.5t-32 15t-44.5 6.5q-34 0 -60.5 -12t-43.5 -29t-29 -45.5
t-18 -51.5t-9 -58.5t-3.5 -54t-0.5 -50.5v-565h-209zM694 1370l86 -57q-18 -29 -30 -45.5t-39.5 -47t-61.5 -46t-74 -15.5q-51 0 -129 45q-71 41 -102 41q-21 0 -40 -12.5t-28.5 -23.5t-29.5 -38l-84 58q48 79 96 115t107 36q29 0 54.5 -8.5t74.5 -34.5q72 -43 110 -43
q49 0 90 76z" />
    <glyph glyph-name="ograve" unicode="&#xf2;" horiz-adv-x="942" 
d="M473 1034q91 0 161.5 -31t114 -80t71 -118.5t38 -139.5t10.5 -149q0 -541 -399 -541q-91 0 -161 30.5t-113.5 80.5t-71.5 120.5t-38.5 143t-10.5 156.5q0 80 9 149t36 141.5t70 123t115.5 82.5t168.5 32zM471 877q-93 0 -134.5 -92t-41.5 -281q0 -195 43.5 -283
t132.5 -88q90 0 133 87.5t43 285.5q0 193 -43 282t-133 89zM625 1208l-76 -78l-352 222l108 137z" />
    <glyph glyph-name="oacute" unicode="&#xf3;" horiz-adv-x="942" 
d="M473 1034q91 0 161.5 -31t114 -80t71 -118.5t38 -139.5t10.5 -149q0 -541 -399 -541q-91 0 -161 30.5t-113.5 80.5t-71.5 120.5t-38.5 143t-10.5 156.5q0 80 9 149t36 141.5t70 123t115.5 82.5t168.5 32zM471 877q-93 0 -134.5 -92t-41.5 -281q0 -195 43.5 -283
t132.5 -88q90 0 133 87.5t43 285.5q0 193 -43 282t-133 89zM373 1208l319 281l109 -137l-352 -222z" />
    <glyph glyph-name="ocircumflex" unicode="&#xf4;" horiz-adv-x="942" 
d="M473 1034q91 0 161.5 -31t114 -80t71 -118.5t38 -139.5t10.5 -149q0 -541 -399 -541q-91 0 -161 30.5t-113.5 80.5t-71.5 120.5t-38.5 143t-10.5 156.5q0 80 9 149t36 141.5t70 123t115.5 82.5t168.5 32zM471 877q-93 0 -134.5 -92t-41.5 -281q0 -195 43.5 -283
t132.5 -88q90 0 133 87.5t43 285.5q0 193 -43 282t-133 89zM115 1153l356 274l356 -274l-176 -14l-180 121l-180 -121z" />
    <glyph glyph-name="otilde" unicode="&#xf5;" horiz-adv-x="942" 
d="M473 1034q91 0 161.5 -31t114 -80t71 -118.5t38 -139.5t10.5 -149q0 -541 -399 -541q-91 0 -161 30.5t-113.5 80.5t-71.5 120.5t-38.5 143t-10.5 156.5q0 80 9 149t36 141.5t70 123t115.5 82.5t168.5 32zM471 877q-93 0 -134.5 -92t-41.5 -281q0 -195 43.5 -283
t132.5 -88q90 0 133 87.5t43 285.5q0 193 -43 282t-133 89zM694 1370l86 -57q-18 -29 -30 -45.5t-39.5 -47t-61.5 -46t-74 -15.5q-51 0 -129 45q-71 41 -102 41q-21 0 -40 -12.5t-28.5 -23.5t-29.5 -38l-84 58q48 79 96 115t107 36q29 0 54.5 -8.5t74.5 -34.5
q72 -43 110 -43q49 0 90 76z" />
    <glyph glyph-name="odieresis" unicode="&#xf6;" horiz-adv-x="942" 
d="M473 1034q91 0 161.5 -31t114 -80t71 -118.5t38 -139.5t10.5 -149q0 -541 -399 -541q-91 0 -161 30.5t-113.5 80.5t-71.5 120.5t-38.5 143t-10.5 156.5q0 80 9 149t36 141.5t70 123t115.5 82.5t168.5 32zM471 877q-93 0 -134.5 -92t-41.5 -281q0 -195 43.5 -283
t132.5 -88q90 0 133 87.5t43 285.5q0 193 -43 282t-133 89zM311 1163q-39 0 -73.5 27.5t-34.5 75.5q0 45 33 74.5t75 29.5t75.5 -29.5t33.5 -74.5q0 -47 -35 -75t-74 -28zM631 1163q-39 0 -74 28.5t-35 74.5q0 44 33 74t76 30q42 0 75 -29.5t33 -74.5q0 -47 -34.5 -75
t-73.5 -28z" />
    <glyph glyph-name="divide" unicode="&#xf7;" 
d="M942 600h-838v166h838v-166zM625 868h-203v228h203v-228zM625 270h-203v228h203v-228z" />
    <glyph glyph-name="oslash" unicode="&#xf8;" horiz-adv-x="942" 
d="M721 1100h121l-90 -182q116 -145 116 -406q0 -537 -399 -537q-95 0 -180 37l-60 -118h-120l92 184l-29 36.5t-32 54t-33.5 80.5t-22.5 109t-10 146q0 82 10.5 153.5t37.5 142.5t70 121t113.5 81.5t161.5 31.5q106 0 199 -45zM301 246l283 610q-48 29 -109 29
q-49 0 -84.5 -17.5t-63.5 -59t-42.5 -117.5t-14.5 -187q0 -154 31 -258zM647 739l-276 -596q58 -20 96 -20q34 0 59.5 6.5t54.5 30t47.5 63t31 111.5t12.5 170q0 114 -25 235z" />
    <glyph glyph-name="ugrave" unicode="&#xf9;" horiz-adv-x="942" 
d="M117 1010h209v-641q0 -47 0.5 -67t3.5 -53t10 -47t19.5 -30.5t33 -22.5t49.5 -6q27 0 50 7.5t39 18.5t29 32t21 39t14 49.5t9 52.5t4.5 59.5t1.5 60v62.5v486h209v-1010h-192v152l-25.5 -48t-32 -45.5t-46.5 -43.5t-64 -27.5t-88 -12.5q-41 0 -75.5 8.5t-59 21t-44 35
t-32 42t-21 52t-13 55t-6.5 60.5t-2.5 58t-0.5 58v645zM625 1208l-76 -78l-352 222l108 137z" />
    <glyph glyph-name="uacute" unicode="&#xfa;" horiz-adv-x="942" 
d="M117 1010h209v-641q0 -47 0.5 -67t3.5 -53t10 -47t19.5 -30.5t33 -22.5t49.5 -6q27 0 50 7.5t39 18.5t29 32t21 39t14 49.5t9 52.5t4.5 59.5t1.5 60v62.5v486h209v-1010h-192v152l-25.5 -48t-32 -45.5t-46.5 -43.5t-64 -27.5t-88 -12.5q-41 0 -75.5 8.5t-59 21t-44 35
t-32 42t-21 52t-13 55t-6.5 60.5t-2.5 58t-0.5 58v645zM373 1208l319 281l109 -137l-352 -222z" />
    <glyph glyph-name="ucircumflex" unicode="&#xfb;" horiz-adv-x="942" 
d="M117 1010h209v-641q0 -47 0.5 -67t3.5 -53t10 -47t19.5 -30.5t33 -22.5t49.5 -6q27 0 50 7.5t39 18.5t29 32t21 39t14 49.5t9 52.5t4.5 59.5t1.5 60v62.5v486h209v-1010h-192v152l-25.5 -48t-32 -45.5t-46.5 -43.5t-64 -27.5t-88 -12.5q-41 0 -75.5 8.5t-59 21t-44 35
t-32 42t-21 52t-13 55t-6.5 60.5t-2.5 58t-0.5 58v645zM115 1153l356 274l356 -274l-176 -14l-180 121l-180 -121z" />
    <glyph glyph-name="udieresis" unicode="&#xfc;" horiz-adv-x="942" 
d="M117 1010h209v-641q0 -47 0.5 -67t3.5 -53t10 -47t19.5 -30.5t33 -22.5t49.5 -6q27 0 50 7.5t39 18.5t29 32t21 39t14 49.5t9 52.5t4.5 59.5t1.5 60v62.5v486h209v-1010h-192v152l-25.5 -48t-32 -45.5t-46.5 -43.5t-64 -27.5t-88 -12.5q-41 0 -75.5 8.5t-59 21t-44 35
t-32 42t-21 52t-13 55t-6.5 60.5t-2.5 58t-0.5 58v645zM311 1163q-39 0 -73.5 27.5t-34.5 75.5q0 45 33 74.5t75 29.5t75.5 -29.5t33.5 -74.5q0 -47 -35 -75t-74 -28zM631 1163q-39 0 -74 28.5t-35 74.5q0 44 33 74t76 30q42 0 75 -29.5t33 -74.5q0 -47 -34.5 -75t-73.5 -28
z" />
    <glyph glyph-name="yacute" unicode="&#xfd;" horiz-adv-x="733" 
d="M0 1010h209l176 -693l180 693h189l-328 -1073l-21.5 -67t-23 -60.5t-29 -57.5t-36 -45.5t-47.5 -38t-59.5 -21.5t-76.5 -9t-108 12v168q37 -6 73 -6q84 0 117.5 41t71.5 180zM268 1208l320 281l108 -137l-352 -222z" />
    <glyph glyph-name="thorn" unicode="&#xfe;" horiz-adv-x="976" 
d="M121 1366h207v-512l23.5 43t31.5 44t45.5 45t60 29t80.5 13q146 0 241 -132.5t95 -375.5q0 -48 -4.5 -97t-17.5 -116t-43 -131t-74 -110q-79 -84 -211 -84q-48 0 -85.5 10.5t-65 32.5t-41.5 37.5t-33 41.5l-2 -446h-207v1708zM328 590v-168q0 -52 1.5 -78t10.5 -62
t27 -65q52 -78 139 -78q96 0 137 94.5t41 280.5q0 360 -170 360q-57 0 -100.5 -44t-64.5 -107.5t-21 -132.5z" />
    <glyph glyph-name="ydieresis" unicode="&#xff;" horiz-adv-x="733" 
d="M0 1010h209l176 -693l180 693h189l-328 -1073l-21.5 -67t-23 -60.5t-29 -57.5t-36 -45.5t-47.5 -38t-59.5 -21.5t-76.5 -9t-108 12v168q37 -6 73 -6q84 0 117.5 41t71.5 180zM207 1163q-39 0 -74 27.5t-35 75.5q0 45 33.5 74.5t75.5 29.5t75 -29.5t33 -74.5
q0 -47 -34.5 -75t-73.5 -28zM526 1163q-39 0 -73.5 28.5t-34.5 74.5q0 44 32.5 74t75.5 30q42 0 75.5 -29.5t33.5 -74.5q0 -47 -35 -75t-74 -28z" />
    <glyph glyph-name="dotlessi" unicode="&#x131;" horiz-adv-x="454" 
d="M123 1010h209v-1010h-209v1010z" />
    <glyph glyph-name="Lslash" unicode="&#x141;" horiz-adv-x="837" 
d="M131 1366h225v-535l240 242v-211l-240 -239v-433h484v-190h-709v473l-117 -117v209l117 117v684z" />
    <glyph glyph-name="lslash" unicode="&#x142;" horiz-adv-x="487" 
d="M139 1366h209v-502l129 131v-168l-129 -129v-698h-209v567l-129 -131v168l129 129v633z" />
    <glyph glyph-name="OE" unicode="&#x152;" horiz-adv-x="1640" 
d="M1616 1366v-180h-569v-393h446v-181h-446v-428h573v-184h-784v127q-19 -27 -31 -42.5t-37 -39.5t-50 -37t-64.5 -23t-86.5 -10q-43 0 -86 8.5t-93.5 29.5t-99.5 64.5t-89 104.5q-62 96 -88.5 234t-26.5 260q0 62 5.5 125.5t22 152.5t55 172t95.5 140q60 60 144.5 92.5
t171.5 32.5q55 0 100 -13.5t77.5 -39t49 -42.5t37.5 -45v115h774zM829 346v692q-14 29 -22.5 44t-30 42t-43.5 41.5t-59 26.5t-82 12q-124 0 -182 -94q-86 -139 -86 -457q0 -491 272 -491q167 0 233 184z" />
    <glyph glyph-name="oe" unicode="&#x153;" horiz-adv-x="1466" 
d="M1415 473h-567q0 -34 0.5 -54t4 -60.5t10.5 -66t21 -59t34 -53t52 -33.5t72 -14q37 0 66.5 13.5t47 31t31 47t19 48.5t11.5 49l190 -27q-6 -25 -11 -42.5t-19 -53.5t-30.5 -62.5t-46.5 -59t-65.5 -53t-87.5 -35t-113 -14.5q-183 0 -291 150q-59 -83 -125 -116.5
t-155 -33.5q-90 0 -160 32t-112.5 82.5t-69.5 121.5t-37 142t-10 151q0 78 9 146.5t35.5 141t68 124.5t112.5 85t164 33q102 0 171.5 -38t121.5 -113q20 26 30.5 38t38.5 38t54 39t68.5 24.5t90.5 11.5q111 0 189 -52.5t114 -123.5q33 -63 50 -136t20 -119.5t4 -129.5z
M469 877q-91 0 -132.5 -91.5t-41.5 -281.5q0 -194 42 -282.5t132 -88.5q50 0 85 28t53.5 81t26 116t7.5 146t-7.5 145.5t-25.5 116.5t-53 82.5t-86 28.5zM852 614h350q1 54 -7.5 100t-27.5 84.5t-53.5 60.5t-81.5 22q-161 0 -180 -267z" />
    <glyph glyph-name="Scaron" unicode="&#x160;" 
d="M944 1061l-192 -68q-36 105 -89.5 158t-152.5 53q-51 0 -89.5 -18t-58.5 -46t-29 -55t-9 -53t7.5 -48.5t17 -39t33 -34l38.5 -28t52 -27t56.5 -24l67.5 -26.5l72 -28t72 -33t73.5 -42.5t63.5 -53.5t54.5 -69t33.5 -85t14 -105q0 -77 -27.5 -148.5t-81.5 -132t-144.5 -97
t-205.5 -36.5q-79 0 -145.5 17.5t-111.5 41t-83 63.5t-58 69.5t-38 74.5t-23.5 63.5t-13.5 51.5l201 58l8 -33.5t14 -42.5t23 -49.5t34.5 -46t48.5 -42t65 -27t85 -11.5q66 0 113 21t69 54t31 63t9 58q0 46 -18 82t-54.5 62.5t-71.5 43t-90 36.5q-127 47 -182 74t-107 71
q-53 46 -88 118t-35 161q0 57 15.5 111.5t49.5 104.5t82 87.5t118.5 59.5t154.5 22q66 0 123 -14t96 -34t73 -53t53 -58.5t37 -64.5t24.5 -57t15.5 -49zM195 1729l184 14l184 -103l185 103l184 -14l-369 -259z" />
    <glyph glyph-name="scaron" unicode="&#x161;" horiz-adv-x="802" 
d="M731 774l-164 -45q-8 26 -16.5 44.5t-27.5 47t-51.5 44.5t-74.5 16q-62 0 -96.5 -36.5t-34.5 -88.5q0 -27 9 -47.5t21 -34t43 -28t54.5 -23t75.5 -25.5q35 -11 55.5 -18.5t56 -23t57.5 -30t49.5 -38.5t43 -50.5t26.5 -63t11 -79.5q0 -60 -23 -116t-67 -102t-116.5 -74
t-164.5 -28q-64 0 -117.5 13t-88.5 31.5t-63.5 48.5t-43.5 53t-27 57.5t-15.5 49.5t-8.5 40l178 35q4 -21 8 -37t17.5 -44t33 -46t55 -32.5t81.5 -14.5q48 0 82 15t48.5 38.5t20.5 42.5t6 37q0 28 -11.5 51t-25.5 37.5t-42 28t-46 20t-53 17.5l-48.5 16l-47 17t-49 20.5
t-44.5 24.5t-42.5 30.5t-33.5 36.5t-28.5 45t-16.5 53t-7 64q0 127 91 219t244 92q259 0 328 -260zM45 1397l176 14l180 -123l181 123l176 -14l-357 -275z" />
    <glyph glyph-name="Ydieresis" unicode="&#x178;" horiz-adv-x="837" 
d="M-63 1366h245l250 -569l254 569h217l-379 -788v-578h-225v578zM266 1501q-40 0 -76 28.5t-36 76.5q0 47 34 77.5t78 30.5q46 0 79.5 -31t33.5 -75q0 -48 -35.5 -77.5t-77.5 -29.5zM594 1501q-41 0 -77 29t-36 78q0 45 34 75.5t79 30.5q44 0 78.5 -31t34.5 -77
q0 -48 -36 -76.5t-77 -28.5z" />
    <glyph glyph-name="Zcaron" unicode="&#x17d;" horiz-adv-x="872" 
d="M39 1366h819v-158l-606 -1018h620v-190h-870v174l598 1008h-561v184zM61 1729l185 14l184 -103l184 103l185 -14l-369 -259z" />
    <glyph glyph-name="zcaron" unicode="&#x17e;" horiz-adv-x="698" 
d="M66 1010h614v-127l-426 -725h430v-158h-653v158l409 694h-374v158zM-6 1397l176 14l180 -123l180 123l177 -14l-357 -275z" />
    <glyph glyph-name="florin" unicode="&#x192;" 
d="M618 942h207l-24 -168h-209l-103 -649q-9 -56 -16.5 -94t-22 -87t-32 -81.5t-45.5 -67t-63.5 -54.5t-85.5 -33t-111 -13q-29 0 -101 10l27 174q50 -4 61 -4q95 0 131 50t62 214l100 635h-162l25 168h164q33 177 64 252q65 155 211 189q45 10 98 10q64 0 114 -13l-26 -168
q-36 9 -62 9q-36 0 -62 -6.5t-46 -23.5t-33 -36t-24.5 -55.5t-18.5 -69t-17 -88.5z" />
    <glyph glyph-name="circumflex" unicode="&#x2c6;" horiz-adv-x="1024" 
d="M156 1153l356 274l356 -274l-176 -14l-180 121l-180 -121z" />
    <glyph glyph-name="caron" unicode="&#x2c7;" horiz-adv-x="1024" 
d="M156 1397l176 14l180 -123l180 123l176 -14l-356 -275z" />
    <glyph glyph-name="uni02C9" unicode="&#x2c9;" horiz-adv-x="1024" 
d="M236 1331h552v-131h-552v131z" />
    <glyph glyph-name="breve" unicode="&#x2d8;" horiz-adv-x="1024" 
d="M205 1382h141q15 -49 39 -71q41 -41 127 -41q37 0 66 8t45.5 18.5t28.5 28t16.5 29t9.5 28.5h141l-9 -34t-15 -41t-25 -48t-37.5 -43.5t-53.5 -40t-72.5 -25.5t-94.5 -11t-94.5 10.5t-72.5 25.5t-53.5 39.5t-37.5 43.5t-24.5 47.5t-15.5 41.5t-9 35z" />
    <glyph glyph-name="dotaccent" unicode="&#x2d9;" horiz-adv-x="1024" 
d="M512 1147q-44 0 -82.5 32t-38.5 85q0 51 36 85.5t85 34.5q50 0 85.5 -34t35.5 -86t-38 -84.5t-83 -32.5z" />
    <glyph glyph-name="ring" unicode="&#x2da;" horiz-adv-x="1024" 
d="M512 1114q-68 0 -128 50.5t-60 135.5q0 82 56 136.5t132 54.5q75 0 131.5 -55t56.5 -136q0 -84 -59.5 -135t-128.5 -51zM512 1214q33 0 59.5 24t26.5 62q0 39 -25.5 65t-60.5 26q-33 0 -59.5 -25t-26.5 -63q0 -40 27 -64.5t59 -24.5z" />
    <glyph glyph-name="ogonek" unicode="&#x2db;" horiz-adv-x="1024" 
d="M782 -250l19 -80q-69 -22 -135 -22q-114 0 -168 50.5t-54 117.5q0 37 13 68t39 54t41.5 33.5t42.5 26.5h92q-24 -22 -38.5 -38.5t-31 -49.5t-16.5 -66q0 -100 131 -100q41 0 65 6z" />
    <glyph glyph-name="tilde" unicode="&#x2dc;" horiz-adv-x="1024" 
d="M735 1370l86 -57q-18 -29 -30 -45.5t-39.5 -47t-61.5 -46t-74 -15.5q-51 0 -129 45q-71 41 -102 41q-21 0 -40 -12.5t-28.5 -23.5t-29.5 -38l-84 58q48 79 96 115t107 36q29 0 54.5 -8.5t74.5 -34.5q72 -43 110 -43q49 0 90 76z" />
    <glyph glyph-name="hungarumlaut" unicode="&#x2dd;" horiz-adv-x="1024" 
d="M557 1460l111 -117l-277 -213l-63 68zM842 1460l108 -117l-276 -213l-64 68z" />
    <glyph glyph-name="uni03A9" unicode="&#x3a9;" horiz-adv-x="1335" 
d="M346 162v6q-104 99 -172 247.5t-68 329.5q0 179 72 325t202 230t292 84q103 0 192.5 -35t154.5 -95.5t112 -140.5t70.5 -170.5t23.5 -184.5q0 -186 -70 -340.5t-172 -249.5v-6h268v-162h-473v119q105 74 176.5 227.5t71.5 370.5q0 95 -23 183t-66 159.5t-112.5 114.5
t-154.5 43q-109 0 -193 -67t-128 -182t-44 -259q0 -203 73.5 -362.5t176.5 -227.5v-119h-475v162h266z" />
    <glyph glyph-name="uni03BC" unicode="&#x3bc;" horiz-adv-x="942" 
d="M610 1010h209v-1010h-192v152q-7 -29 -11.5 -45.5t-17.5 -45t-28 -44.5t-42 -29t-61 -13q-41 0 -71 16.5t-47 48t-25 55t-15 57.5v-494h-192v1352h209v-486q0 -138 4.5 -199.5t21.5 -99.5q15 -38 45 -60t70 -22q84 0 119 82q16 39 20 105.5t4 193.5v486z" />
    <glyph glyph-name="pi" unicode="&#x3c0;" horiz-adv-x="1107" 
d="M1061 850h-141v-565q0 -192 26 -285h-192q-31 64 -31 274v576h-295q-8 -194 -45 -453t-84 -397h-193q49 161 85.5 413t41.5 437q-130 0 -194 -23l-25 134q79 59 291 59h770z" />
    <glyph glyph-name="endash" unicode="&#x2013;" horiz-adv-x="837" 
d="M66 594h706v-162h-706v162z" />
    <glyph glyph-name="emdash" unicode="&#x2014;" horiz-adv-x="1290" 
d="M63 594h1164v-162h-1164v162z" />
    <glyph glyph-name="quoteleft" unicode="&#x2018;" horiz-adv-x="452" 
d="M326 885h-217v248l137 256h100l-117 -250h97v-254z" />
    <glyph glyph-name="quoteright" unicode="&#x2019;" horiz-adv-x="452" 
d="M129 1112v254h217v-248l-137 -256h-100l116 250h-96z" />
    <glyph glyph-name="quotesinglbase" unicode="&#x201a;" horiz-adv-x="452" 
d="M129 254h217v-248l-137 -256h-100l116 250h-96v254z" />
    <glyph glyph-name="quotedblleft" unicode="&#x201c;" horiz-adv-x="768" 
d="M635 885h-217v248l137 256h100l-116 -250h96v-254zM328 885h-217v248l137 256h100l-117 -250h97v-254z" />
    <glyph glyph-name="quotedblright" unicode="&#x201d;" horiz-adv-x="768" 
d="M131 1366h217v-248l-137 -256h-100l116 250h-96v254zM438 1366h217v-248l-137 -256h-100l117 250h-97v254z" />
    <glyph glyph-name="quotedblbase" unicode="&#x201e;" horiz-adv-x="768" 
d="M131 254h217v-248l-137 -256h-100l116 250h-96v254zM438 254h217v-248l-137 -256h-100l117 250h-97v254z" />
    <glyph glyph-name="dagger" unicode="&#x2020;" 
d="M424 1366h199v-385h301v-178h-301v-1145h-199v1145h-301v178h301v385z" />
    <glyph glyph-name="daggerdbl" unicode="&#x2021;" 
d="M424 1366h199v-385h301v-178h-301v-582h301v-178h-301v-385h-199v385h-301v178h301v582h-301v178h301v385z" />
    <glyph glyph-name="bullet" unicode="&#x2022;" horiz-adv-x="247" 
d="M0 838h248v-281h-248v281z" />
    <glyph glyph-name="ellipsis" unicode="&#x2026;" horiz-adv-x="1466" 
d="M131 258h227v-258h-227v258zM621 258h227v-258h-227v258zM1110 258h227v-258h-227v258z" />
    <glyph glyph-name="perthousand" unicode="&#x2030;" horiz-adv-x="2023" 
d="M356 1378q123 0 196 -93t73 -259q0 -175 -75.5 -264.5t-193.5 -89.5q-121 0 -195.5 90.5t-74.5 263.5q0 168 73.5 260t196.5 92zM356 1253q-24 0 -41 -8t-34 -30.5t-26 -70t-9 -118.5q0 -57 6 -98.5t15.5 -66.5t24.5 -39.5t30 -19.5t34 -5q57 0 83 54.5t26 174.5
q0 122 -27 174.5t-82 52.5zM1040 694q122 0 195.5 -92.5t73.5 -261.5t-74 -260.5t-195 -91.5q-123 0 -195.5 92t-72.5 260q0 174 73.5 264t194.5 90zM1040 569q-53 0 -81.5 -50.5t-28.5 -180.5q0 -95 18 -150q26 -75 92 -75q52 0 80.5 49.5t28.5 177.5q0 121 -27.5 175
t-81.5 54zM1667 694q121 0 194.5 -92t73.5 -262q0 -169 -74 -260.5t-194 -91.5q-123 0 -195.5 92.5t-72.5 259.5q0 172 74 263t194 91zM1667 569q-53 0 -80.5 -51.5t-27.5 -179.5q0 -93 18 -150q24 -75 90 -75q52 0 80.5 49.5t28.5 177.5q0 123 -27 176t-82 53zM965 1366
h135l-666 -1366h-135z" />
    <glyph glyph-name="guilsinglleft" unicode="&#x2039;" horiz-adv-x="489" 
d="M399 199h-116l-193 325l193 328h116l-108 -328z" />
    <glyph glyph-name="guilsinglright" unicode="&#x203a;" horiz-adv-x="489" 
d="M90 852h117l192 -328l-192 -325h-117l107 325z" />
    <glyph glyph-name="fraction" unicode="&#x2044;" horiz-adv-x="174" 
d="M346 1366h148l-666 -1366h-147z" />
    <glyph glyph-name="Euro" unicode="&#x20ac;" 
d="M1034 1006l-192 -31q-10 47 -17.5 75.5t-23.5 65.5t-35.5 57.5t-52 35t-74.5 14.5q-99 0 -149.5 -79.5t-65.5 -258.5h338l-21 -125h-323q0 -14 -1 -43t-1 -45v-45h303l-21 -125h-276q14 -185 66 -272t151 -87q75 0 126 51t75 183l190 -29q-45 -208 -147.5 -290.5
t-274.5 -82.5q-176 0 -285.5 134.5t-132.5 392.5h-161l20 125h133v57q0 14 1 39t1 37h-155l20 125h144q60 506 446 506q174 0 266.5 -95t128.5 -290z" />
    <glyph glyph-name="afii61289" unicode="&#x2113;" horiz-adv-x="944" 
d="M821 322l84 -82q-128 -256 -373 -256q-82 0 -144 27t-100 75.5t-58 108t-25 131.5q0 14 -2 22q-8 -7 -45.5 -37.5l-57.5 -46.5l-51 109l71 60.5t83 74.5v514q0 125 26 220t71 150t100 82t120 27q122 0 185 -92.5t63 -239.5q0 -169 -97.5 -339.5t-279.5 -352.5v-78
q1 -129 52.5 -193.5t131.5 -64.5q75 0 139 53t107 128zM391 1024v-358q252 296 252 510q0 180 -117 180q-25 0 -48 -17t-43 -53t-32 -103.5t-12 -158.5z" />
    <glyph glyph-name="trademark" unicode="&#x2122;" horiz-adv-x="1466" 
d="M203 588v657h-172v121h499v-121h-176v-657h-151zM592 588v778h223l143 -559l152 559h217v-778h-141v653l-178 -653h-121l-168 655v-655h-127z" />
    <glyph glyph-name="Omega" unicode="&#x2126;" horiz-adv-x="1335" 
d="M346 162v6q-104 99 -172 247.5t-68 329.5q0 179 72 325t202 230t292 84q103 0 192.5 -35t154.5 -95.5t112 -140.5t70.5 -170.5t23.5 -184.5q0 -186 -70 -340.5t-172 -249.5v-6h268v-162h-473v119q105 74 176.5 227.5t71.5 370.5q0 95 -23 183t-66 159.5t-112.5 114.5
t-154.5 43q-109 0 -193 -67t-128 -182t-44 -259q0 -203 73.5 -362.5t176.5 -227.5v-119h-475v162h266z" />
    <glyph glyph-name="estimated" unicode="&#x212e;" horiz-adv-x="1705" 
d="M1638 664h-1273q-11 0 -11 -9v-385q0 -25 17 -45q96 -98 221 -153.5t262 -55.5q148 0 279.5 62.5t226.5 171.5h113q-106 -125 -270.5 -199t-350.5 -74q-160 0 -305.5 56t-250.5 150.5t-167.5 225t-62.5 273.5q0 144 62.5 275.5t167.5 226.5t250.5 151t305.5 56t305.5 -56
t250.5 -151t167.5 -226.5t62.5 -275.5v-18zM1350 713v387q0 28 -19 47q-97 94 -219.5 147.5t-257.5 53.5q-136 0 -260 -55t-221 -152q-19 -19 -19 -49v-379q0 -4 3.5 -8.5t7.5 -4.5h976q9 0 9 13z" />
    <glyph glyph-name="partialdiff" unicode="&#x2202;" horiz-adv-x="1060" 
d="M195 1276l-60 149q138 111 332 111q100 0 188.5 -46t159 -135t111.5 -233t41 -325q0 -242 -58.5 -424t-175 -285.5t-278.5 -103.5q-92 0 -166.5 40t-119.5 106t-69 146t-24 164q0 226 118 366t287 140q57 0 108.5 -17.5t87 -45t58 -53t35.5 -48.5h2q2 18 2 74
q0 217 -94.5 365.5t-237.5 148.5q-140 0 -247 -94zM473 152h2q75 0 136.5 68t96 167.5t46.5 216.5q-21 66 -84.5 124t-151.5 58q-104 0 -176 -104.5t-72 -247.5q0 -123 56 -202.5t147 -79.5z" />
    <glyph glyph-name="Delta" unicode="&#x2206;" horiz-adv-x="1228" 
d="M55 0v123l449 1274h231l436 -1270v-127h-1116zM256 162h707l-234 649q-13 44 -57.5 176t-57.5 180h-6q-9 -39 -49.5 -158.5t-54.5 -168.5z" />
    <glyph glyph-name="product" unicode="&#x220f;" horiz-adv-x="1341" 
d="M1292 1182h-196v-1370h-195v1370h-461v-1370h-194v1370h-197v182h1243v-182z" />
    <glyph glyph-name="summation" unicode="&#x2211;" 
d="M1008 -188h-963v131l477 645l-459 637v139h916v-170h-651v-6l417 -567l-458 -617v-4h721v-188z" />
    <glyph glyph-name="minus" unicode="&#x2212;" 
d="M942 600h-838v166h838v-166z" />
    <glyph glyph-name="uni2215" unicode="&#x2215;" horiz-adv-x="174" 
d="M346 1366h148l-666 -1366h-147z" />
    <glyph glyph-name="uni2219" unicode="&#x2219;" horiz-adv-x="489" 
d="M131 655h227v-258h-227v258z" />
    <glyph glyph-name="radical" unicode="&#x221a;" horiz-adv-x="1105" 
d="M1110 1630l-420 -1911h-164l-288 879l-142 -55l-33 114l295 119l213 -663l18.5 -81t16.5 -77l4 -2q16 112 27 166l334 1511h139z" />
    <glyph glyph-name="infinity" unicode="&#x221e;" horiz-adv-x="1486" 
d="M1391 565v-2q0 -143 -89 -231t-210 -88q-88 0 -168.5 51t-178.5 170q-43 -52 -77.5 -86t-79.5 -68t-95 -50.5t-106 -16.5q-119 0 -206 89t-87 222q0 139 87.5 228t221.5 89q99 0 181 -57t168 -162q6 6 17 19q43 48 68 73t69.5 60t93 51t104.5 16q126 0 206.5 -85
t80.5 -222zM403 358h3q17 0 34 3.5t31 7.5t31.5 15t28 16.5t28.5 22t25.5 22.5t26.5 27t23.5 25.5t25 27.5t22.5 26q-80 101 -113 133q-83 78 -176 78q-84 0 -133 -59t-49 -150q2 -81 55.5 -138t136.5 -57zM1092 762h-2q-29 0 -59.5 -11t-53 -24.5t-50.5 -39.5t-42.5 -42
l-40.5 -46l-33 -38q98 -114 157 -158.5t128 -44.5q81 0 129.5 60.5t48.5 136.5q0 93 -51 150t-131 57z" />
    <glyph glyph-name="integral" unicode="&#x222b;" horiz-adv-x="724" 
d="M684 1653l-25 -137q-40 18 -67 18q-61 0 -96 -49q-58 -74 -58 -338q0 -152 13.5 -470t13.5 -489q0 -266 -74 -393q-33 -61 -92.5 -91t-128.5 -30q-80 0 -135 31l28 143q40 -20 82 -20q58 0 86 41q58 78 58 317q0 172 -13.5 496t-13.5 483q0 167 24.5 266t82.5 162
q75 84 204 84q65 0 111 -24z" />
    <glyph glyph-name="approxequal" unicode="&#x2248;" horiz-adv-x="1050" 
d="M897 858l74 -65q-44 -88 -108 -140.5t-144 -52.5q-53 0 -96.5 17t-118.5 61q-53 33 -91 49t-79 16q-31 0 -57 -10.5t-49 -34t-37 -43l-37 -53.5l-76 66q44 87 114 138.5t154 51.5q17 0 34 -2.5t30 -5t29.5 -9t25.5 -9.5t26 -12t21.5 -12t22 -13t18.5 -11l30.5 -17.5
t30.5 -17l25 -12.5t28.5 -11.5t25.5 -5.5t30 -3q54 0 93 34.5t81 106.5zM897 514l74 -65q-99 -191 -252 -191q-53 0 -98 17.5t-117 60.5q-53 33 -90.5 49t-79.5 16q-58 0 -97.5 -36.5t-82.5 -104.5l-76 66q44 87 114.5 138.5t153.5 51.5q27 0 51 -4t49 -14.5t37 -16
t38.5 -20.5t29.5 -17q10 -5 35 -20t36 -20.5t30.5 -14t36 -11.5t34.5 -3q53 0 91.5 33.5t82.5 105.5z" />
    <glyph glyph-name="notequal" unicode="&#x2260;" horiz-adv-x="1050" 
d="M762 985l-80 -178h274v-119h-319l-119 -268h438v-119h-483l-98 -221l-94 41l81 180h-268v119h314l118 268h-432v119h477l97 217z" />
    <glyph glyph-name="lessequal" unicode="&#x2264;" horiz-adv-x="1050" 
d="M952 193l-848 430v129l846 430v-142l-725 -350v-4l727 -352v-141zM958 -4h-864v121h864v-121z" />
    <glyph glyph-name="greaterequal" unicode="&#x2265;" horiz-adv-x="1050" 
d="M106 1182l848 -430v-129l-848 -430v141l728 352v4l-728 350v142zM956 -4h-860v121h860v-121z" />
    <glyph glyph-name="lozenge" unicode="&#x25ca;" horiz-adv-x="1105" 
d="M1006 680l-379 -770h-158l-369 770l377 774h158zM829 676l-237 498q-26 69 -37 114h-6q-12 -54 -37 -114l-238 -488l240 -506q27 -65 33 -108h8q12 57 33 106z" />
    </font>
</defs>
</svg>
